<svg width="321" height="197" viewBox="0 0 321 197" fill="none" xmlns="http://www.w3.org/2000/svg">
<g filter="url(#filter0_dd_552_8852)">
<g filter="url(#filter1_b_552_8852)">
<rect x="13" y="9" width="295" height="152" rx="24" fill="white" fill-opacity="0.6"/>
</g>
<path opacity="0.6" d="M34.912 43V34.36H37.072V36.984H39.216C39.7707 36.984 40.1493 36.8667 40.352 36.632C40.5653 36.3867 40.672 36.0187 40.672 35.528V34.36H42.832V35.448C42.832 35.9813 42.7413 36.456 42.56 36.872C42.3893 37.2773 42.0693 37.5707 41.6 37.752C42.048 37.9227 42.352 38.1893 42.512 38.552C42.6827 38.904 42.768 39.3147 42.768 39.784V43H40.608V40.024C40.608 39.48 40.5013 39.1013 40.288 38.888C40.0853 38.6747 39.712 38.568 39.168 38.568H37.072V43H34.912ZM38.8056 33.176V31.752H37.5576V30.28H40.2616V31.704H43.6856L43.6056 33.176H38.8056ZM47.9256 43.16C47.211 43.16 46.5443 43.096 45.9256 42.968C45.307 42.8293 44.7843 42.6693 44.3576 42.488V37.944H48.0216L48.1176 39.528H46.4056V41.272C46.6083 41.336 46.8483 41.3893 47.1256 41.432C47.4136 41.464 47.6856 41.48 47.9416 41.48C48.8163 41.48 49.4296 41.272 49.7816 40.856C50.1336 40.44 50.3096 39.7253 50.3096 38.712C50.3096 37.9867 50.2136 37.4213 50.0216 37.016C49.8403 36.6 49.5363 36.3067 49.1096 36.136C48.6936 35.9653 48.123 35.88 47.3976 35.88C46.9283 35.88 46.4376 35.9173 45.9256 35.992C45.4243 36.056 44.939 36.1627 44.4696 36.312V34.696C44.9496 34.536 45.499 34.4133 46.1176 34.328C46.7363 34.2427 47.339 34.2 47.9256 34.2C49.483 34.2 50.6083 34.5893 51.3016 35.368C52.0056 36.136 52.3576 37.2507 52.3576 38.712C52.3576 40.1413 52.0056 41.24 51.3016 42.008C50.6083 42.776 49.483 43.16 47.9256 43.16ZM57.1131 43.16C56.8251 43.16 56.5158 43.1387 56.1851 43.096C55.8651 43.0533 55.5825 42.9947 55.3371 42.92L52.9051 37H55.0011L56.9051 41.624C57.7051 41.624 58.2811 41.3573 58.6331 40.824C58.9958 40.28 59.1771 39.4747 59.1771 38.408C59.1771 37.768 59.1131 37.2667 58.9851 36.904C58.8678 36.5413 58.6705 36.2853 58.3931 36.136C58.1158 35.976 57.7318 35.896 57.2411 35.896H56.5851V34.36H57.5451C58.8145 34.36 59.7425 34.696 60.3291 35.368C60.9265 36.0293 61.2251 37.0427 61.2251 38.408C61.2251 39.528 61.0491 40.44 60.6971 41.144C60.3451 41.8373 59.8598 42.3493 59.2411 42.68C58.6331 43 57.9238 43.16 57.1131 43.16ZM66.4146 43.16C65.1453 43.16 64.1426 42.8613 63.4066 42.264C62.6706 41.656 62.3026 40.744 62.3026 39.528V34.36H64.4626V39.56C64.4626 40.84 65.1133 41.48 66.4146 41.48C67.716 41.48 68.3666 40.84 68.3666 39.56V31.8H70.5266V39.528C70.5266 40.744 70.1586 41.656 69.4226 42.264C68.6866 42.8613 67.684 43.16 66.4146 43.16ZM75.3396 43.16C74.7423 43.16 74.1663 43.1173 73.6116 43.032C73.0676 42.9467 72.625 42.8347 72.2836 42.696V40.952C72.689 41.1227 73.1316 41.256 73.6116 41.352C74.1023 41.4373 74.545 41.48 74.9396 41.48C75.633 41.48 76.1343 41.4267 76.4436 41.32C76.7636 41.2133 76.9236 40.9947 76.9236 40.664C76.9236 40.408 76.8383 40.2107 76.6676 40.072C76.5076 39.9333 76.257 39.8107 75.9156 39.704C75.5743 39.5867 75.137 39.4373 74.6036 39.256C73.825 38.9787 73.2116 38.6693 72.7636 38.328C72.3263 37.976 72.1076 37.4587 72.1076 36.776C72.1076 36.008 72.4063 35.3893 73.0036 34.92C73.601 34.44 74.5023 34.2 75.7076 34.2C76.209 34.2 76.7103 34.2373 77.2116 34.312C77.713 34.3867 78.1236 34.4773 78.4436 34.584V36.312C78.0916 36.1627 77.6863 36.056 77.2276 35.992C76.7796 35.9173 76.3743 35.88 76.0116 35.88C75.5103 35.88 75.073 35.9387 74.6996 36.056C74.337 36.1627 74.1556 36.3867 74.1556 36.728C74.1556 36.9413 74.2463 37.112 74.4276 37.24C74.6196 37.368 74.8863 37.4853 75.2276 37.592C75.5796 37.6987 75.9956 37.8373 76.4756 38.008C77.073 38.2107 77.553 38.424 77.9156 38.648C78.289 38.872 78.5556 39.144 78.7156 39.464C78.8863 39.784 78.9716 40.184 78.9716 40.664C78.9716 41.5067 78.6463 42.136 77.9956 42.552C77.3556 42.9573 76.4703 43.16 75.3396 43.16ZM80.1545 37.848V35.48H81.9785V36.264H84.2025L84.1385 37.848H80.1545ZM80.1545 42.136V39.768H81.9785V40.552H84.2025L84.1385 42.136H80.1545ZM89.3744 43.16C88.0837 43.16 87.113 42.8613 86.4624 42.264C85.8117 41.6667 85.4864 40.8507 85.4864 39.816V39.272C85.4864 38.9093 85.5557 38.584 85.6944 38.296C85.833 38.008 85.9877 37.752 86.1584 37.528C86.3397 37.304 86.4997 37.096 86.6384 36.904C86.777 36.712 86.8464 36.5307 86.8464 36.36C86.8464 36.2 86.809 36.0933 86.7344 36.04C86.6597 35.9867 86.5264 35.96 86.3344 35.96H85.2944L85.4704 34.36H87.7104C88.5957 34.36 89.0384 34.7707 89.0384 35.592C89.0384 35.9547 88.969 36.2853 88.8304 36.584C88.6917 36.872 88.5264 37.1493 88.3344 37.416C88.153 37.6827 87.993 37.9653 87.8544 38.264C87.7157 38.552 87.6464 38.8827 87.6464 39.256V39.944C87.6464 40.968 88.2224 41.48 89.3744 41.48C90.5477 41.48 91.1344 40.9467 91.1344 39.88V38.872C91.1344 38.4667 91.065 38.1787 90.9264 38.008C90.7877 37.8373 90.5424 37.752 90.1904 37.752H89.7424L89.8384 36.248H90.1264C90.4784 36.248 90.7344 36.1573 90.8944 35.976C91.0544 35.7947 91.1344 35.5067 91.1344 35.112V34.2H93.2944V35.064C93.2944 35.5547 93.2197 35.9547 93.0704 36.264C92.921 36.5627 92.6277 36.808 92.1904 37C92.6384 37.2027 92.9317 37.464 93.0704 37.784C93.2197 38.0933 93.2944 38.4827 93.2944 38.952V39.784C93.2944 40.8187 92.9477 41.64 92.2544 42.248C91.561 42.856 90.601 43.16 89.3744 43.16ZM91.4492 47.048V45.192H90.4892L90.5692 43.816H93.2732V47.048H91.4492ZM100.185 43.16C99.5879 43.16 99.0493 43.0693 98.5693 42.888C98.0893 42.7067 97.6573 42.4613 97.2733 42.152L97.1773 43H95.1933V34.36H97.3533V40.584C97.5879 40.84 97.8973 41.0533 98.2812 41.224C98.6759 41.3947 99.0706 41.48 99.4653 41.48C99.9773 41.48 100.361 41.3573 100.617 41.112C100.884 40.856 101.017 40.4347 101.017 39.848V34.36H103.177V39.976C103.177 40.9787 102.911 41.7627 102.377 42.328C101.844 42.8827 101.113 43.16 100.185 43.16ZM107.82 43.16C107.276 43.16 106.775 43.0747 106.316 42.904C105.857 42.7227 105.489 42.4347 105.212 42.04C104.945 41.6347 104.812 41.1013 104.812 40.44C104.812 39.576 105.105 38.9147 105.692 38.456C106.279 37.9867 107.121 37.752 108.22 37.752H110.668V37.336C110.668 36.8027 110.519 36.4293 110.22 36.216C109.921 35.992 109.393 35.88 108.636 35.88C108.113 35.88 107.617 35.9173 107.148 35.992C106.689 36.056 106.231 36.1627 105.772 36.312V34.696C106.209 34.5573 106.716 34.44 107.292 34.344C107.868 34.248 108.433 34.2 108.988 34.2C109.276 34.2 109.548 34.216 109.804 34.248C110.06 34.2693 110.3 34.3067 110.524 34.36H113.532L113.42 36.008H112.444C112.572 36.2107 112.668 36.4453 112.732 36.712C112.796 36.9787 112.828 37.2613 112.828 37.56V43H110.668V39.336H108.348C107.889 39.336 107.527 39.416 107.26 39.576C106.993 39.736 106.86 40.024 106.86 40.44C106.86 40.8347 106.977 41.1067 107.212 41.256C107.447 41.4053 107.841 41.48 108.396 41.48C108.599 41.48 108.796 41.4693 108.988 41.448C109.191 41.4267 109.361 41.3947 109.5 41.352V42.936C109.297 43 109.047 43.0533 108.748 43.096C108.46 43.1387 108.151 43.16 107.82 43.16ZM117.469 43C116.776 43 116.285 42.856 115.997 42.568C115.72 42.28 115.581 41.8267 115.581 41.208V34.184C115.581 33.5333 115.448 33.032 115.181 32.68C114.925 32.328 114.53 32.0613 113.997 31.88V30.296H119.229V31.976H116.717C117.058 32.1787 117.314 32.456 117.485 32.808C117.656 33.16 117.741 33.5973 117.741 34.12V40.648C117.741 41.096 117.96 41.32 118.397 41.32H118.941V43H117.469ZM125.045 43.16C124.447 43.16 123.909 43.0693 123.429 42.888C122.949 42.7067 122.517 42.4613 122.133 42.152L122.037 43H120.053V34.36H122.213V40.584C122.447 40.84 122.757 41.0533 123.141 41.224C123.535 41.3947 123.93 41.48 124.325 41.48C124.837 41.48 125.221 41.3573 125.477 41.112C125.743 40.856 125.877 40.4347 125.877 39.848V34.36H128.037V39.976C128.037 40.9787 127.77 41.7627 127.237 42.328C126.703 42.8827 125.973 43.16 125.045 43.16ZM132.679 43.16C132.135 43.16 131.634 43.0747 131.175 42.904C130.717 42.7227 130.349 42.4347 130.071 42.04C129.805 41.6347 129.671 41.1013 129.671 40.44C129.671 39.576 129.965 38.9147 130.551 38.456C131.138 37.9867 131.981 37.752 133.079 37.752H135.527V37.336C135.527 36.8027 135.378 36.4293 135.079 36.216C134.781 35.992 134.253 35.88 133.495 35.88C132.973 35.88 132.477 35.9173 132.007 35.992C131.549 36.056 131.09 36.1627 130.631 36.312V34.696C131.069 34.5573 131.575 34.44 132.151 34.344C132.727 34.248 133.293 34.2 133.847 34.2C134.135 34.2 134.407 34.216 134.663 34.248C134.919 34.2693 135.159 34.3067 135.383 34.36H138.391L138.279 36.008H137.303C137.431 36.2107 137.527 36.4453 137.591 36.712C137.655 36.9787 137.687 37.2613 137.687 37.56V43H135.527V39.336H133.207C132.749 39.336 132.386 39.416 132.119 39.576C131.853 39.736 131.719 40.024 131.719 40.44C131.719 40.8347 131.837 41.1067 132.071 41.256C132.306 41.4053 132.701 41.48 133.255 41.48C133.458 41.48 133.655 41.4693 133.847 41.448C134.05 41.4267 134.221 41.3947 134.359 41.352V42.936C134.157 43 133.906 43.0533 133.607 43.096C133.319 43.1387 133.01 43.16 132.679 43.16ZM142.808 43.16C142.211 43.16 141.635 43.1173 141.08 43.032C140.536 42.9467 140.094 42.8347 139.752 42.696V40.952C140.158 41.1227 140.6 41.256 141.08 41.352C141.571 41.4373 142.014 41.48 142.408 41.48C143.102 41.48 143.603 41.4267 143.912 41.32C144.232 41.2133 144.392 40.9947 144.392 40.664C144.392 40.408 144.307 40.2107 144.136 40.072C143.976 39.9333 143.726 39.8107 143.384 39.704C143.043 39.5867 142.606 39.4373 142.072 39.256C141.294 38.9787 140.68 38.6693 140.232 38.328C139.795 37.976 139.576 37.4587 139.576 36.776C139.576 36.008 139.875 35.3893 140.472 34.92C141.07 34.44 141.971 34.2 143.176 34.2C143.678 34.2 144.179 34.2373 144.68 34.312C145.182 34.3867 145.592 34.4773 145.912 34.584V36.312C145.56 36.1627 145.155 36.056 144.696 35.992C144.248 35.9173 143.843 35.88 143.48 35.88C142.979 35.88 142.542 35.9387 142.168 36.056C141.806 36.1627 141.624 36.3867 141.624 36.728C141.624 36.9413 141.715 37.112 141.896 37.24C142.088 37.368 142.355 37.4853 142.696 37.592C143.048 37.6987 143.464 37.8373 143.944 38.008C144.542 38.2107 145.022 38.424 145.384 38.648C145.758 38.872 146.024 39.144 146.184 39.464C146.355 39.784 146.44 40.184 146.44 40.664C146.44 41.5067 146.115 42.136 145.464 42.552C144.824 42.9573 143.939 43.16 142.808 43.16ZM150.935 43.16C150.007 43.16 149.277 42.8827 148.743 42.328C148.21 41.7627 147.943 40.9787 147.943 39.976V34.36H150.103V39.848C150.103 40.4347 150.231 40.856 150.487 41.112C150.754 41.3573 151.143 41.48 151.655 41.48C152.061 41.48 152.455 41.3947 152.839 41.224C153.223 41.0533 153.533 40.84 153.767 40.584V34.36H155.927V43H153.943L153.847 42.152C153.463 42.4613 153.031 42.7067 152.551 42.888C152.071 43.0693 151.533 43.16 150.935 43.16ZM151.818 33.176V30.632H153.578V31.704H157.562L157.482 33.176H151.818ZM157.914 43V40.248C157.914 39.7573 157.994 39.3253 158.154 38.952C158.325 38.568 158.655 38.3013 159.146 38.152L157.514 37.72V35.656C157.951 35.2827 158.533 34.9467 159.258 34.648C159.994 34.3493 160.831 34.2 161.77 34.2C162.634 34.2 163.37 34.312 163.978 34.536C164.597 34.76 165.066 35.1333 165.386 35.656C165.717 36.1787 165.882 36.888 165.882 37.784V43H163.722V37.736C163.722 37.064 163.562 36.5893 163.242 36.312C162.933 36.024 162.405 35.88 161.658 35.88C161.178 35.88 160.735 35.9493 160.33 36.088C159.935 36.2267 159.615 36.4027 159.37 36.616V36.84L161.146 37.32V38.632C160.719 38.7387 160.431 38.9147 160.282 39.16C160.143 39.3947 160.074 39.7627 160.074 40.264V43H157.914ZM167.787 43V37.64C167.787 36.5947 168.107 35.7627 168.747 35.144C169.398 34.5147 170.438 34.2 171.867 34.2C172.155 34.2 172.422 34.216 172.667 34.248C172.923 34.2693 173.163 34.3067 173.387 34.36H176.747L176.635 36.008H175.499C175.648 36.2 175.755 36.4453 175.819 36.744C175.894 37.032 175.931 37.3307 175.931 37.64V43H173.771V37.48C173.771 36.9467 173.6 36.5467 173.259 36.28C172.928 36.0133 172.464 35.88 171.867 35.88C170.587 35.88 169.947 36.4133 169.947 37.48V39.032C170.15 38.8827 170.374 38.76 170.619 38.664C170.875 38.568 171.152 38.52 171.451 38.52H172.491L172.555 40.232H171.403C171.104 40.232 170.838 40.2747 170.603 40.36C170.368 40.4347 170.15 40.5467 169.947 40.696V43H167.787ZM168.969 33.176L169.081 31.704H173.097C173.054 31.32 173.166 30.968 173.433 30.648C173.689 30.3173 174.094 30.152 174.649 30.152C175.204 30.152 175.604 30.3013 175.849 30.6C176.094 30.8987 176.217 31.2453 176.217 31.64C176.217 32.0667 176.084 32.4293 175.817 32.728C175.54 33.0267 175.124 33.176 174.569 33.176H168.969ZM174.665 32.264C174.857 32.264 175.012 32.2053 175.129 32.088C175.236 31.9707 175.289 31.8267 175.289 31.656C175.289 31.4747 175.23 31.3253 175.113 31.208C174.996 31.08 174.846 31.016 174.665 31.016C174.494 31.016 174.35 31.0747 174.233 31.192C174.105 31.3093 174.041 31.464 174.041 31.656C174.041 31.8267 174.105 31.9707 174.233 32.088C174.35 32.2053 174.494 32.264 174.665 32.264ZM178.336 43V40.248C178.336 39.7573 178.416 39.3253 178.576 38.952C178.746 38.568 179.077 38.3013 179.568 38.152L177.936 37.72V35.656C178.373 35.2827 178.954 34.9467 179.68 34.648C180.416 34.3493 181.253 34.2 182.192 34.2C183.056 34.2 183.792 34.312 184.4 34.536C185.018 34.76 185.488 35.1333 185.808 35.656C186.138 36.1787 186.304 36.888 186.304 37.784V43H184.144V37.736C184.144 37.064 183.984 36.5893 183.664 36.312C183.354 36.024 182.826 35.88 182.08 35.88C181.6 35.88 181.157 35.9493 180.752 36.088C180.357 36.2267 180.037 36.4027 179.792 36.616V36.84L181.568 37.32V38.632C181.141 38.7387 180.853 38.9147 180.704 39.16C180.565 39.3947 180.496 39.7627 180.496 40.264V43H178.336ZM192.321 43.16C191.052 43.16 190.049 42.8613 189.313 42.264C188.577 41.656 188.209 40.744 188.209 39.528V34.36H190.369V39.56C190.369 40.84 191.02 41.48 192.321 41.48C193.622 41.48 194.273 40.84 194.273 39.56V38.584H192.433V37H194.273V34.36H196.433V37H197.345L197.201 38.584H196.433V39.528C196.433 40.744 196.065 41.656 195.329 42.264C194.593 42.8613 193.59 43.16 192.321 43.16ZM201.499 43V37.688C201.499 37.112 201.387 36.6693 201.163 36.36C200.939 36.04 200.491 35.88 199.819 35.88C199.467 35.88 199.094 35.9227 198.699 36.008C198.305 36.0827 197.953 36.1787 197.643 36.296V34.712C197.963 34.5627 198.358 34.44 198.827 34.344C199.297 34.248 199.766 34.2 200.235 34.2C201.451 34.2 202.326 34.4613 202.859 34.984C203.393 35.496 203.659 36.296 203.659 37.384V43H201.499Z" fill="black"/>
<g opacity="0.6">
<rect x="34" y="65" width="163" height="33" rx="16.5" fill="#FAFAFA"/>
<circle cx="54.5" cy="81.5" r="12.5" fill="#FFE7D0"/>
<path fill-rule="evenodd" clip-rule="evenodd" d="M49 75.5C49 74.9696 49.2107 74.4609 49.5858 74.0858C49.9609 73.7107 50.4696 73.5 51 73.5H59C59.5304 73.5 60.0391 73.7107 60.4142 74.0858C60.7893 74.4609 61 74.9696 61 75.5V87.5C61.2652 87.5 61.5196 87.6054 61.7071 87.7929C61.8946 87.9804 62 88.2348 62 88.5C62 88.7652 61.8946 89.0196 61.7071 89.2071C61.5196 89.3946 61.2652 89.5 61 89.5H58C57.7348 89.5 57.4804 89.3946 57.2929 89.2071C57.1054 89.0196 57 88.7652 57 88.5V86.5C57 86.2348 56.8946 85.9804 56.7071 85.7929C56.5196 85.6054 56.2652 85.5 56 85.5H54C53.7348 85.5 53.4804 85.6054 53.2929 85.7929C53.1054 85.9804 53 86.2348 53 86.5V88.5C53 88.7652 52.8946 89.0196 52.7071 89.2071C52.5196 89.3946 52.2652 89.5 52 89.5H49C48.7348 89.5 48.4804 89.3946 48.2929 89.2071C48.1054 89.0196 48 88.7652 48 88.5C48 88.2348 48.1054 87.9804 48.2929 87.7929C48.4804 87.6054 48.7348 87.5 49 87.5V75.5ZM52 76.5H54V78.5H52V76.5ZM54 80.5H52V82.5H54V80.5ZM56 76.5H58V78.5H56V76.5ZM58 80.5H56V82.5H58V80.5Z" fill="#FD7427"/>
<path d="M79.396 86.14C78.2853 86.14 77.408 85.8787 76.764 85.356C76.12 84.824 75.798 84.026 75.798 82.962V78.44H77.688V82.99C77.688 84.11 78.2573 84.67 79.396 84.67C80.5347 84.67 81.104 84.11 81.104 82.99V76.2H82.994V82.962C82.994 84.026 82.672 84.824 82.028 85.356C81.384 85.8787 80.5067 86.14 79.396 86.14ZM87.2054 86.14C86.6827 86.14 86.1787 86.1027 85.6934 86.028C85.2174 85.9533 84.83 85.8553 84.5314 85.734V84.208C84.886 84.3573 85.2734 84.474 85.6934 84.558C86.1227 84.6327 86.51 84.67 86.8554 84.67C87.462 84.67 87.9007 84.6233 88.1714 84.53C88.4514 84.4367 88.5914 84.2453 88.5914 83.956C88.5914 83.732 88.5167 83.5593 88.3674 83.438C88.2274 83.3167 88.008 83.2093 87.7094 83.116C87.4107 83.0133 87.028 82.8827 86.5614 82.724C85.88 82.4813 85.3434 82.2107 84.9514 81.912C84.5687 81.604 84.3774 81.1513 84.3774 80.554C84.3774 79.882 84.6387 79.3407 85.1614 78.93C85.684 78.51 86.4727 78.3 87.5274 78.3C87.966 78.3 88.4047 78.3327 88.8434 78.398C89.282 78.4633 89.6414 78.5427 89.9214 78.636V80.148C89.6134 80.0173 89.2587 79.924 88.8574 79.868C88.4654 79.8027 88.1107 79.77 87.7934 79.77C87.3547 79.77 86.972 79.8213 86.6454 79.924C86.328 80.0173 86.1694 80.2133 86.1694 80.512C86.1694 80.6987 86.2487 80.848 86.4074 80.96C86.5754 81.072 86.8087 81.1747 87.1074 81.268C87.4154 81.3613 87.7794 81.4827 88.1994 81.632C88.722 81.8093 89.142 81.996 89.4594 82.192C89.786 82.388 90.0194 82.626 90.1594 82.906C90.3087 83.186 90.3834 83.536 90.3834 83.956C90.3834 84.6933 90.0987 85.244 89.5294 85.608C88.9694 85.9627 88.1947 86.14 87.2054 86.14ZM91.4184 81.492V79.42H93.0144V80.106H94.9604L94.9044 81.492H91.4184ZM91.4184 85.244V83.172H93.0144V83.858H94.9604L94.9044 85.244H91.4184ZM97.9178 86C97.3111 86 96.8818 85.874 96.6298 85.622C96.3871 85.37 96.2658 84.9733 96.2658 84.432V78.44H98.1558V83.942C98.1558 84.334 98.3471 84.53 98.7298 84.53H99.2058V86H97.9178ZM100.39 86V84.53H100.852C101.039 84.53 101.165 84.4927 101.23 84.418C101.296 84.3433 101.328 84.2127 101.328 84.026V83.592C101.328 83.1627 101.389 82.7893 101.51 82.472C101.632 82.1547 101.907 81.9167 102.336 81.758L100.908 81.38V79.574C101.291 79.2473 101.8 78.9533 102.434 78.692C103.078 78.4307 103.811 78.3 104.632 78.3C105.696 78.3 106.532 78.538 107.138 79.014C107.754 79.49 108.062 80.2973 108.062 81.436V86H106.172V81.394C106.172 80.806 106.042 80.3907 105.78 80.148C105.528 79.896 105.113 79.77 104.534 79.77C104.114 79.77 103.727 79.8307 103.372 79.952C103.027 80.0733 102.747 80.2273 102.532 80.414V80.61L104.086 81.03V82.178C103.732 82.29 103.503 82.4487 103.4 82.654C103.298 82.85 103.246 83.1673 103.246 83.606V84.124C103.246 84.7867 103.088 85.2673 102.77 85.566C102.453 85.8553 101.996 86 101.398 86H100.39ZM109.732 86V78.44H111.468L111.552 79.182C111.888 78.9113 112.275 78.6967 112.714 78.538C113.162 78.3793 113.647 78.3 114.17 78.3C114.963 78.3 115.584 78.5427 116.032 79.028C116.489 79.5133 116.718 80.1807 116.718 81.03V86H114.828V81.142C114.828 80.6567 114.711 80.3067 114.478 80.092C114.254 79.8773 113.918 79.77 113.47 79.77C113.124 79.77 112.779 79.8447 112.434 79.994C112.098 80.1433 111.827 80.33 111.622 80.554V86H109.732Z" fill="#33302E"/>
<path d="M126.882 86V78.44H128.408V80.82H130.592C131.143 80.82 131.521 80.7033 131.726 80.47C131.941 80.2273 132.048 79.8773 132.048 79.42V78.44H133.56V79.378C133.56 79.8447 133.476 80.2553 133.308 80.61C133.149 80.9647 132.855 81.2213 132.426 81.38C132.855 81.5293 133.14 81.7673 133.28 82.094C133.42 82.4113 133.49 82.7847 133.49 83.214V86H131.978V83.396C131.978 82.8547 131.875 82.486 131.67 82.29C131.465 82.0847 131.087 81.982 130.536 81.982H128.408V86H126.882ZM130.347 77.292V76.004H129.241V74.954H131.397V76.228H134.421L134.365 77.292H130.347ZM138.159 86.14C137.562 86.14 136.997 86.084 136.465 85.972C135.943 85.86 135.504 85.7293 135.149 85.58V81.688H138.145L138.215 82.85H136.619V84.684C136.834 84.7587 137.077 84.8193 137.347 84.866C137.627 84.9033 137.898 84.922 138.159 84.922C138.99 84.922 139.573 84.726 139.909 84.334C140.255 83.9327 140.427 83.2373 140.427 82.248C140.427 81.5573 140.343 81.016 140.175 80.624C140.007 80.2227 139.727 79.9427 139.335 79.784C138.953 79.616 138.43 79.532 137.767 79.532C137.366 79.532 136.946 79.56 136.507 79.616C136.069 79.672 135.653 79.7653 135.261 79.896V78.72C135.653 78.5893 136.101 78.4867 136.605 78.412C137.119 78.3373 137.632 78.3 138.145 78.3C139.471 78.3 140.427 78.636 141.015 79.308C141.603 79.9707 141.897 80.9507 141.897 82.248C141.897 83.5173 141.603 84.4833 141.015 85.146C140.427 85.8087 139.475 86.14 138.159 86.14ZM146.352 86.14C146.137 86.14 145.899 86.126 145.638 86.098C145.377 86.07 145.148 86.0233 144.952 85.958L142.824 80.778H144.308L146.03 84.978C146.833 85.0153 147.416 84.7867 147.78 84.292C148.144 83.788 148.326 83.018 148.326 81.982C148.326 81.3753 148.27 80.8993 148.158 80.554C148.046 80.1993 147.855 79.952 147.584 79.812C147.323 79.6627 146.959 79.588 146.492 79.588H145.96V78.44H146.688C147.771 78.44 148.559 78.7293 149.054 79.308C149.549 79.8867 149.796 80.7733 149.796 81.968C149.796 82.9573 149.647 83.76 149.348 84.376C149.049 84.9827 148.639 85.4307 148.116 85.72C147.603 86 147.015 86.14 146.352 86.14ZM154.744 86.14C153.662 86.14 152.812 85.8833 152.196 85.37C151.59 84.8567 151.286 84.0867 151.286 83.06V78.44H152.812V83.116C152.812 83.7413 152.976 84.1987 153.302 84.488C153.638 84.7773 154.119 84.922 154.744 84.922C155.379 84.922 155.86 84.7773 156.186 84.488C156.522 84.1987 156.69 83.7413 156.69 83.116V76.2H158.202V83.06C158.202 84.0867 157.899 84.8567 157.292 85.37C156.686 85.8833 155.836 86.14 154.744 86.14ZM162.46 86.14C161.965 86.14 161.484 86.1073 161.018 86.042C160.56 85.9767 160.182 85.8833 159.884 85.762V84.488C160.238 84.628 160.621 84.7353 161.032 84.81C161.452 84.8847 161.834 84.922 162.18 84.922C162.824 84.922 163.3 84.866 163.608 84.754C163.916 84.6327 164.07 84.3853 164.07 84.012C164.07 83.7413 163.99 83.536 163.832 83.396C163.673 83.256 163.44 83.1347 163.132 83.032C162.824 82.92 162.441 82.7893 161.984 82.64C161.554 82.4907 161.167 82.3273 160.822 82.15C160.476 81.9727 160.201 81.7487 159.996 81.478C159.8 81.2073 159.702 80.8667 159.702 80.456C159.702 79.7933 159.954 79.2707 160.458 78.888C160.962 78.496 161.722 78.3 162.74 78.3C163.169 78.3 163.594 78.3327 164.014 78.398C164.434 78.4633 164.779 78.5427 165.05 78.636V79.896C164.742 79.7747 164.396 79.686 164.014 79.63C163.64 79.5647 163.29 79.532 162.964 79.532C162.422 79.532 161.988 79.5927 161.662 79.714C161.335 79.826 161.172 80.0593 161.172 80.414C161.172 80.6473 161.256 80.834 161.424 80.974C161.592 81.1047 161.83 81.226 162.138 81.338C162.455 81.4407 162.833 81.5667 163.272 81.716C163.766 81.8747 164.182 82.052 164.518 82.248C164.854 82.4347 165.106 82.668 165.274 82.948C165.451 83.2187 165.54 83.5733 165.54 84.012C165.54 84.7493 165.26 85.2907 164.7 85.636C164.149 85.972 163.402 86.14 162.46 86.14ZM166.756 81.366V79.546H168.058V80.232H170.116L170.06 81.366H166.756ZM166.756 85.174V83.354H168.058V84.054H170.116L170.06 85.174H166.756ZM174.683 86.14C173.619 86.14 172.812 85.8927 172.261 85.398C171.72 84.9033 171.449 84.208 171.449 83.312V82.57C171.449 82.2713 171.51 81.996 171.631 81.744C171.762 81.492 171.907 81.2633 172.065 81.058C172.233 80.8433 172.378 80.6473 172.499 80.47C172.63 80.2833 172.695 80.1107 172.695 79.952C172.695 79.8027 172.663 79.7047 172.597 79.658C172.532 79.6113 172.415 79.588 172.247 79.588H171.281L171.407 78.44H173.171C173.881 78.44 174.235 78.7807 174.235 79.462C174.235 79.7793 174.17 80.064 174.039 80.316C173.918 80.568 173.769 80.8107 173.591 81.044C173.423 81.2773 173.274 81.52 173.143 81.772C173.022 82.0147 172.961 82.2853 172.961 82.584V83.438C172.961 83.9513 173.111 84.3293 173.409 84.572C173.717 84.8053 174.142 84.922 174.683 84.922C175.234 84.922 175.659 84.8007 175.957 84.558C176.265 84.3153 176.419 83.928 176.419 83.396V82.472C176.419 82.0333 176.349 81.73 176.209 81.562C176.069 81.3847 175.808 81.296 175.425 81.296H175.033L175.103 80.19H175.383C175.775 80.19 176.046 80.0967 176.195 79.91C176.345 79.714 176.419 79.4153 176.419 79.014V78.3H177.945V78.986C177.945 79.4247 177.88 79.7887 177.749 80.078C177.619 80.358 177.348 80.5773 176.937 80.736C177.367 80.9133 177.642 81.1467 177.763 81.436C177.885 81.7253 177.945 82.0847 177.945 82.514V83.298C177.945 84.194 177.656 84.894 177.077 85.398C176.499 85.8927 175.701 86.14 174.683 86.14ZM176.644 89.528V87.792H175.762L175.832 86.798H177.946V89.528H176.644ZM183.84 86.14C183.27 86.14 182.771 86.0513 182.342 85.874C181.922 85.6967 181.539 85.4633 181.194 85.174L181.11 86H179.724V78.44H181.25V84.012C181.492 84.2733 181.796 84.4927 182.16 84.67C182.524 84.838 182.916 84.922 183.336 84.922C183.858 84.922 184.25 84.8007 184.512 84.558C184.773 84.306 184.904 83.8953 184.904 83.326V78.44H186.416V83.396C186.416 84.2733 186.187 84.95 185.73 85.426C185.272 85.902 184.642 86.14 183.84 86.14Z" fill="#FD7427"/>
<rect x="34" y="106" width="219" height="33" rx="16.5" fill="#FAFAFA"/>
<circle cx="54.5" cy="122.5" r="12.5" fill="#FFE7D0"/>
<g clip-path="url(#clip0_552_8852)">
<path fill-rule="evenodd" clip-rule="evenodd" d="M50.0505 116.55C51.3633 115.238 53.1439 114.5 55.0005 114.5C56.8571 114.5 58.6377 115.238 59.9505 116.55C61.2633 117.863 62.0009 119.644 62.0009 121.5C62.0009 123.357 61.2633 125.138 59.9505 126.45L55.0005 131.4L50.0505 126.45C49.4004 125.8 48.8847 125.029 48.5329 124.179C48.1811 123.33 48 122.42 48 121.5C48 120.581 48.1811 119.671 48.5329 118.821C48.8847 117.972 49.4004 117.2 50.0505 116.55ZM55.0005 123.5C55.5309 123.5 56.0396 123.29 56.4147 122.915C56.7898 122.539 57.0005 122.031 57.0005 121.5C57.0005 120.97 56.7898 120.461 56.4147 120.086C56.0396 119.711 55.5309 119.5 55.0005 119.5C54.4701 119.5 53.9614 119.711 53.5863 120.086C53.2112 120.461 53.0005 120.97 53.0005 121.5C53.0005 122.031 53.2112 122.539 53.5863 122.915C53.9614 123.29 54.4701 123.5 55.0005 123.5Z" fill="#FD7427"/>
</g>
<path d="M78.192 127.14C77.716 127.14 77.2773 127.065 76.876 126.916C76.4747 126.757 76.1527 126.505 75.91 126.16C75.6767 125.805 75.56 125.339 75.56 124.76C75.56 124.004 75.8167 123.425 76.33 123.024C76.8433 122.613 77.5807 122.408 78.542 122.408H80.684V122.044C80.684 121.577 80.5533 121.251 80.292 121.064C80.0307 120.868 79.5687 120.77 78.906 120.77C78.4487 120.77 78.0147 120.803 77.604 120.868C77.2027 120.924 76.8013 121.017 76.4 121.148V119.734C76.7827 119.613 77.226 119.51 77.73 119.426C78.234 119.342 78.7287 119.3 79.214 119.3C79.466 119.3 79.704 119.314 79.928 119.342C80.152 119.361 80.362 119.393 80.558 119.44H83.19L83.092 120.882H82.238C82.35 121.059 82.434 121.265 82.49 121.498C82.546 121.731 82.574 121.979 82.574 122.24V127H80.684V123.794H78.654C78.2527 123.794 77.9353 123.864 77.702 124.004C77.4687 124.144 77.352 124.396 77.352 124.76C77.352 125.105 77.4547 125.343 77.66 125.474C77.8653 125.605 78.2107 125.67 78.696 125.67C78.8733 125.67 79.046 125.661 79.214 125.642C79.3913 125.623 79.5407 125.595 79.662 125.558V126.944C79.4847 127 79.2653 127.047 79.004 127.084C78.752 127.121 78.4813 127.14 78.192 127.14ZM86.019 127C85.5897 127 85.2397 126.86 84.969 126.58C84.7077 126.3 84.577 125.945 84.577 125.516V124.592C84.577 124.163 84.647 123.785 84.787 123.458C84.9363 123.122 85.2257 122.889 85.655 122.758L84.227 122.38V120.574C84.6097 120.247 85.1183 119.953 85.753 119.692C86.397 119.431 87.1297 119.3 87.951 119.3C88.707 119.3 89.351 119.398 89.883 119.594C90.4243 119.79 90.835 120.117 91.115 120.574C91.4043 121.031 91.549 121.652 91.549 122.436V127H89.659V122.394C89.659 121.806 89.519 121.391 89.239 121.148C88.9683 120.896 88.5063 120.77 87.853 120.77C87.433 120.77 87.0457 120.831 86.691 120.952C86.3457 121.073 86.0657 121.227 85.851 121.414V121.61L87.405 122.03V123.178C87.0317 123.271 86.7797 123.425 86.649 123.64C86.5277 123.845 86.467 124.167 86.467 124.606V125.012C86.467 125.199 86.509 125.334 86.593 125.418C86.677 125.493 86.8077 125.53 86.985 125.53H87.727V127H86.019ZM95.89 127V122.352C95.89 121.848 95.792 121.461 95.596 121.19C95.4 120.91 95.008 120.77 94.42 120.77C94.112 120.77 93.7853 120.807 93.44 120.882C93.0946 120.947 92.7866 121.031 92.516 121.134V119.748C92.796 119.617 93.1413 119.51 93.552 119.426C93.9626 119.342 94.3733 119.3 94.784 119.3C95.848 119.3 96.6133 119.529 97.08 119.986C97.5466 120.434 97.78 121.134 97.78 122.086V127H95.89ZM102.068 127.14C101.256 127.14 100.617 126.897 100.15 126.412C99.6837 125.917 99.4503 125.231 99.4503 124.354V119.44H101.34V124.242C101.34 124.755 101.452 125.124 101.676 125.348C101.91 125.563 102.25 125.67 102.698 125.67C103.053 125.67 103.398 125.595 103.734 125.446C104.07 125.297 104.341 125.11 104.546 124.886V119.44H106.436V127H104.7L104.616 126.258C104.28 126.529 103.902 126.743 103.482 126.902C103.062 127.061 102.591 127.14 102.068 127.14ZM108.105 127V119.44H109.841L109.925 120.182C110.261 119.911 110.648 119.697 111.087 119.538C111.535 119.379 112.02 119.3 112.543 119.3C113.336 119.3 113.957 119.543 114.405 120.028C114.862 120.513 115.091 121.181 115.091 122.03V127H113.201V122.142C113.201 121.657 113.084 121.307 112.851 121.092C112.627 120.877 112.291 120.77 111.843 120.77C111.497 120.77 111.152 120.845 110.807 120.994C110.471 121.143 110.2 121.33 109.995 121.554V127H108.105ZM108.975 118.404L109.073 117.116H113.553V115.982H115.093V118.404H108.975ZM113.483 115.38V113.42H115.023V115.38H113.483Z" fill="#33302E"/>
<path d="M127.71 127.14C127.113 127.14 126.548 127.084 126.016 126.972C125.493 126.86 125.055 126.729 124.7 126.58V122.688H127.696L127.766 123.85H126.17V125.684C126.385 125.759 126.627 125.819 126.898 125.866C127.178 125.903 127.449 125.922 127.71 125.922C128.541 125.922 129.124 125.726 129.46 125.334C129.805 124.933 129.978 124.237 129.978 123.248C129.978 122.557 129.894 122.016 129.726 121.624C129.558 121.223 129.278 120.943 128.886 120.784C128.503 120.616 127.981 120.532 127.318 120.532C126.917 120.532 126.497 120.56 126.058 120.616C125.619 120.672 125.204 120.765 124.812 120.896V119.72C125.204 119.589 125.652 119.487 126.156 119.412C126.669 119.337 127.183 119.3 127.696 119.3C129.021 119.3 129.978 119.636 130.566 120.308C131.154 120.971 131.448 121.951 131.448 123.248C131.448 124.517 131.154 125.483 130.566 126.146C129.978 126.809 129.026 127.14 127.71 127.14ZM135.791 127V122.24C135.791 121.857 135.749 121.54 135.665 121.288C135.581 121.036 135.422 120.849 135.189 120.728C134.955 120.597 134.61 120.532 134.153 120.532C133.854 120.532 133.527 120.565 133.173 120.63C132.827 120.695 132.515 120.784 132.235 120.896V119.72C132.515 119.599 132.851 119.501 133.243 119.426C133.644 119.342 134.045 119.3 134.447 119.3C135.455 119.3 136.183 119.519 136.631 119.958C137.088 120.397 137.317 121.092 137.317 122.044V127H135.791ZM139.101 127V122.212C139.101 121.297 139.376 120.583 139.927 120.07C140.477 119.557 141.345 119.3 142.531 119.3C143.725 119.3 144.589 119.557 145.121 120.07C145.662 120.583 145.933 121.297 145.933 122.212V127H144.407V122.072C144.407 121.54 144.243 121.153 143.917 120.91C143.59 120.658 143.128 120.532 142.531 120.532C141.905 120.532 141.429 120.658 141.103 120.91C140.785 121.153 140.627 121.54 140.627 122.072V123.626C141.037 123.29 141.527 123.122 142.097 123.122H143.007L143.063 124.34H142.055C141.485 124.34 141.009 124.499 140.627 124.816V127H139.101ZM150.57 127V122.24C150.57 121.857 150.528 121.54 150.444 121.288C150.36 121.036 150.201 120.849 149.968 120.728C149.735 120.597 149.389 120.532 148.932 120.532C148.633 120.532 148.307 120.565 147.952 120.63C147.607 120.695 147.294 120.784 147.014 120.896V119.72C147.294 119.599 147.63 119.501 148.022 119.426C148.423 119.342 148.825 119.3 149.226 119.3C150.234 119.3 150.962 119.519 151.41 119.958C151.867 120.397 152.096 121.092 152.096 122.044V127H150.57ZM156.358 127.14C155.863 127.14 155.383 127.107 154.916 127.042C154.459 126.977 154.081 126.883 153.782 126.762V125.488C154.137 125.628 154.519 125.735 154.93 125.81C155.35 125.885 155.733 125.922 156.078 125.922C156.722 125.922 157.198 125.866 157.506 125.754C157.814 125.633 157.968 125.385 157.968 125.012C157.968 124.741 157.889 124.536 157.73 124.396C157.571 124.256 157.338 124.135 157.03 124.032C156.722 123.92 156.339 123.789 155.882 123.64C155.453 123.491 155.065 123.327 154.72 123.15C154.375 122.973 154.099 122.749 153.894 122.478C153.698 122.207 153.6 121.867 153.6 121.456C153.6 120.793 153.852 120.271 154.356 119.888C154.86 119.496 155.621 119.3 156.638 119.3C157.067 119.3 157.492 119.333 157.912 119.398C158.332 119.463 158.677 119.543 158.948 119.636V120.896C158.64 120.775 158.295 120.686 157.912 120.63C157.539 120.565 157.189 120.532 156.862 120.532C156.321 120.532 155.887 120.593 155.56 120.714C155.233 120.826 155.07 121.059 155.07 121.414C155.07 121.647 155.154 121.834 155.322 121.974C155.49 122.105 155.728 122.226 156.036 122.338C156.353 122.441 156.731 122.567 157.17 122.716C157.665 122.875 158.08 123.052 158.416 123.248C158.752 123.435 159.004 123.668 159.172 123.948C159.349 124.219 159.438 124.573 159.438 125.012C159.438 125.749 159.158 126.291 158.598 126.636C158.047 126.972 157.301 127.14 156.358 127.14ZM162.433 127C161.919 127 161.546 126.874 161.313 126.622C161.079 126.37 160.963 126.011 160.963 125.544V119.44H162.475V125.166C162.475 125.586 162.68 125.796 163.091 125.796H163.735V127H162.433ZM167.706 127.14C167.211 127.14 166.73 127.107 166.264 127.042C165.806 126.977 165.428 126.883 165.13 126.762V125.488C165.484 125.628 165.867 125.735 166.278 125.81C166.698 125.885 167.08 125.922 167.426 125.922C168.07 125.922 168.546 125.866 168.854 125.754C169.162 125.633 169.316 125.385 169.316 125.012C169.316 124.741 169.236 124.536 169.078 124.396C168.919 124.256 168.686 124.135 168.378 124.032C168.07 123.92 167.687 123.789 167.23 123.64C166.8 123.491 166.413 123.327 166.068 123.15C165.722 122.973 165.447 122.749 165.242 122.478C165.046 122.207 164.948 121.867 164.948 121.456C164.948 120.793 165.2 120.271 165.704 119.888C166.208 119.496 166.968 119.3 167.986 119.3C168.415 119.3 168.84 119.333 169.26 119.398C169.68 119.463 170.025 119.543 170.296 119.636V120.896C169.988 120.775 169.642 120.686 169.26 120.63C168.886 120.565 168.536 120.532 168.21 120.532C167.668 120.532 167.234 120.593 166.908 120.714C166.581 120.826 166.418 121.059 166.418 121.414C166.418 121.647 166.502 121.834 166.67 121.974C166.838 122.105 167.076 122.226 167.384 122.338C167.701 122.441 168.079 122.567 168.518 122.716C169.012 122.875 169.428 123.052 169.764 123.248C170.1 123.435 170.352 123.668 170.52 123.948C170.697 124.219 170.786 124.573 170.786 125.012C170.786 125.749 170.506 126.291 169.946 126.636C169.395 126.972 168.648 127.14 167.706 127.14ZM164.666 118.292L164.736 117.228H169.244V116.066H170.504V118.292H164.666ZM175.446 127.14C174.774 127.14 174.177 127.061 173.654 126.902C173.132 126.743 172.716 126.491 172.408 126.146C172.11 125.801 171.96 125.343 171.96 124.774C171.96 124.391 172.049 124.055 172.226 123.766C172.404 123.467 172.665 123.234 173.01 123.066C172.721 122.954 172.478 122.763 172.282 122.492C172.096 122.221 172.002 121.885 172.002 121.484C172.002 120.765 172.222 120.224 172.66 119.86C173.108 119.487 173.678 119.3 174.368 119.3C174.639 119.3 174.872 119.319 175.068 119.356C175.264 119.384 175.442 119.426 175.6 119.482V120.644C175.33 120.569 175.012 120.532 174.648 120.532C174.275 120.532 173.986 120.607 173.78 120.756C173.575 120.905 173.472 121.148 173.472 121.484C173.472 121.839 173.589 122.095 173.822 122.254C174.056 122.403 174.378 122.478 174.788 122.478H175.586L175.656 123.612H174.76C173.874 123.612 173.43 123.999 173.43 124.774C173.43 125.157 173.589 125.446 173.906 125.642C174.224 125.829 174.714 125.922 175.376 125.922C176.692 125.922 177.35 125.385 177.35 124.312V119.44H178.862V124.13C178.862 125.147 178.578 125.903 178.008 126.398C177.439 126.893 176.585 127.14 175.446 127.14ZM183.212 127.14C182.4 127.14 181.765 126.902 181.308 126.426C180.86 125.95 180.636 125.273 180.636 124.396V119.44H182.162V124.326C182.162 124.895 182.288 125.306 182.54 125.558C182.792 125.801 183.184 125.922 183.716 125.922C184.127 125.922 184.519 125.838 184.892 125.67C185.265 125.493 185.573 125.273 185.816 125.012V119.44H187.328V127H185.942L185.872 126.174C185.527 126.463 185.135 126.697 184.696 126.874C184.267 127.051 183.772 127.14 183.212 127.14ZM191.59 127.14C191.096 127.14 190.615 127.107 190.148 127.042C189.691 126.977 189.313 126.883 189.014 126.762V125.488C189.369 125.628 189.752 125.735 190.162 125.81C190.582 125.885 190.965 125.922 191.31 125.922C191.954 125.922 192.43 125.866 192.738 125.754C193.046 125.633 193.2 125.385 193.2 125.012C193.2 124.741 193.121 124.536 192.962 124.396C192.804 124.256 192.57 124.135 192.262 124.032C191.954 123.92 191.572 123.789 191.114 123.64C190.685 123.491 190.298 123.327 189.952 123.15C189.607 122.973 189.332 122.749 189.126 122.478C188.93 122.207 188.832 121.867 188.832 121.456C188.832 120.793 189.084 120.271 189.588 119.888C190.092 119.496 190.853 119.3 191.87 119.3C192.3 119.3 192.724 119.333 193.144 119.398C193.564 119.463 193.91 119.543 194.18 119.636V120.896C193.872 120.775 193.527 120.686 193.144 120.63C192.771 120.565 192.421 120.532 192.094 120.532C191.553 120.532 191.119 120.593 190.792 120.714C190.466 120.826 190.302 121.059 190.302 121.414C190.302 121.647 190.386 121.834 190.554 121.974C190.722 122.105 190.96 122.226 191.268 122.338C191.586 122.441 191.964 122.567 192.402 122.716C192.897 122.875 193.312 123.052 193.648 123.248C193.984 123.435 194.236 123.668 194.404 123.948C194.582 124.219 194.67 124.573 194.67 125.012C194.67 125.749 194.39 126.291 193.83 126.636C193.28 126.972 192.533 127.14 191.59 127.14ZM198.043 127.14C197.175 127.14 196.419 127 195.775 126.72V125.516C196.055 125.637 196.358 125.735 196.685 125.81C197.021 125.885 197.352 125.922 197.679 125.922C198.314 125.922 198.818 125.833 199.191 125.656C199.564 125.479 199.83 125.194 199.989 124.802C200.157 124.401 200.241 123.873 200.241 123.22C200.241 122.249 200.04 121.559 199.639 121.148C199.247 120.737 198.589 120.532 197.665 120.532C197.329 120.532 197.002 120.569 196.685 120.644C196.368 120.709 196.064 120.807 195.775 120.938V119.72C196.092 119.589 196.433 119.487 196.797 119.412C197.17 119.337 197.572 119.3 198.001 119.3C199.252 119.3 200.18 119.636 200.787 120.308C201.403 120.971 201.711 121.941 201.711 123.22C201.711 124.489 201.417 125.46 200.829 126.132C200.25 126.804 199.322 127.14 198.043 127.14ZM207.242 127.14C206.673 127.14 206.173 127.051 205.744 126.874C205.324 126.697 204.941 126.463 204.596 126.174L204.512 127H203.126V119.44H204.652V125.012C204.895 125.273 205.198 125.493 205.562 125.67C205.926 125.838 206.318 125.922 206.738 125.922C207.261 125.922 207.653 125.801 207.914 125.558C208.175 125.306 208.306 124.895 208.306 124.326V119.44H209.818V124.396C209.818 125.273 209.589 125.95 209.132 126.426C208.675 126.902 208.045 127.14 207.242 127.14ZM218.777 127V125.026H214.269V123.948L218.959 117.984H220.289V123.794H221.213V125.026H220.289V127H218.777ZM215.753 123.836H219.015V119.72L215.753 123.836ZM228.765 127.14C227.701 127.14 226.894 126.893 226.343 126.398C225.802 125.903 225.531 125.208 225.531 124.312V123.57C225.531 123.271 225.592 122.996 225.713 122.744C225.844 122.492 225.989 122.263 226.147 122.058C226.315 121.843 226.46 121.647 226.581 121.47C226.712 121.283 226.777 121.111 226.777 120.952C226.777 120.803 226.745 120.705 226.679 120.658C226.614 120.611 226.497 120.588 226.329 120.588H225.363L225.489 119.44H227.253C227.963 119.44 228.317 119.781 228.317 120.462C228.317 120.779 228.252 121.064 228.121 121.316C228 121.568 227.851 121.811 227.673 122.044C227.505 122.277 227.356 122.52 227.225 122.772C227.104 123.015 227.043 123.285 227.043 123.584V124.438C227.043 124.951 227.193 125.329 227.491 125.572C227.799 125.805 228.224 125.922 228.765 125.922C229.316 125.922 229.741 125.801 230.039 125.558C230.347 125.315 230.501 124.928 230.501 124.396V123.472C230.501 123.033 230.431 122.73 230.291 122.562C230.151 122.385 229.89 122.296 229.507 122.296H229.115L229.185 121.19H229.465C229.857 121.19 230.128 121.097 230.277 120.91C230.427 120.714 230.501 120.415 230.501 120.014V119.3H232.027V119.986C232.027 120.425 231.962 120.789 231.831 121.078C231.701 121.358 231.43 121.577 231.019 121.736C231.449 121.913 231.724 122.147 231.845 122.436C231.967 122.725 232.027 123.085 232.027 123.514V124.298C232.027 125.194 231.738 125.894 231.159 126.398C230.581 126.893 229.783 127.14 228.765 127.14ZM228.71 118.292V116.248H229.97V117.228H233.596L233.526 118.292H228.71ZM230.173 115.338V114.246H229.305V113.266H231.167V114.358H233.323L233.267 115.338H230.173ZM236.382 127.14C235.57 127.14 234.935 126.902 234.478 126.426C234.03 125.95 233.806 125.273 233.806 124.396V119.44H235.332V124.326C235.332 124.895 235.458 125.306 235.71 125.558C235.962 125.801 236.354 125.922 236.886 125.922C237.296 125.922 237.688 125.838 238.062 125.67C238.435 125.493 238.743 125.273 238.986 125.012V119.44H240.498V127H239.112L239.042 126.174C238.696 126.463 238.304 126.697 237.866 126.874C237.436 127.051 236.942 127.14 236.382 127.14Z" fill="#FD7427"/>
</g>
</g>
<defs>
<filter id="filter0_dd_552_8852" x="0" y="0" width="321" height="197" filterUnits="userSpaceOnUse" color-interpolation-filters="sRGB">
<feFlood flood-opacity="0" result="BackgroundImageFix"/>
<feColorMatrix in="SourceAlpha" type="matrix" values="0 0 0 0 0 0 0 0 0 0 0 0 0 0 0 0 0 0 127 0" result="hardAlpha"/>
<feMorphology radius="1" operator="erode" in="SourceAlpha" result="effect1_dropShadow_552_8852"/>
<feOffset dy="4"/>
<feGaussianBlur stdDeviation="2"/>
<feComposite in2="hardAlpha" operator="out"/>
<feColorMatrix type="matrix" values="0 0 0 0 0.0470588 0 0 0 0 0.0470588 0 0 0 0 0.0509804 0 0 0 0.05 0"/>
<feBlend mode="normal" in2="BackgroundImageFix" result="effect1_dropShadow_552_8852"/>
<feColorMatrix in="SourceAlpha" type="matrix" values="0 0 0 0 0 0 0 0 0 0 0 0 0 0 0 0 0 0 127 0" result="hardAlpha"/>
<feMorphology radius="1" operator="erode" in="SourceAlpha" result="effect2_dropShadow_552_8852"/>
<feOffset dy="4"/>
<feGaussianBlur stdDeviation="7"/>
<feComposite in2="hardAlpha" operator="out"/>
<feColorMatrix type="matrix" values="0 0 0 0 0.992157 0 0 0 0 0.454902 0 0 0 0 0.152941 0 0 0 0.1 0"/>
<feBlend mode="normal" in2="effect1_dropShadow_552_8852" result="effect2_dropShadow_552_8852"/>
<feBlend mode="normal" in="SourceGraphic" in2="effect2_dropShadow_552_8852" result="shape"/>
</filter>
<filter id="filter1_b_552_8852" x="-21" y="-25" width="363" height="220" filterUnits="userSpaceOnUse" color-interpolation-filters="sRGB">
<feFlood flood-opacity="0" result="BackgroundImageFix"/>
<feGaussianBlur in="BackgroundImageFix" stdDeviation="17"/>
<feComposite in2="SourceAlpha" operator="in" result="effect1_backgroundBlur_552_8852"/>
<feBlend mode="normal" in="SourceGraphic" in2="effect1_backgroundBlur_552_8852" result="shape"/>
</filter>
<clipPath id="clip0_552_8852">
<rect width="14.0009" height="17.0004" fill="white" transform="translate(48 114.5)"/>
</clipPath>
</defs>
</svg>
