<svg width="321" height="203" viewBox="0 0 321 203" fill="none" xmlns="http://www.w3.org/2000/svg">
<g filter="url(#filter0_dd_552_8832)">
<g filter="url(#filter1_b_552_8832)">
<rect x="13" y="9" width="295" height="152" rx="24" fill="white" fill-opacity="0.2"/>
</g>
<g opacity="0.2">
<path d="M35.14 47V36.2H37.84V39.48H40.52C41.2133 39.48 41.6867 39.3333 41.94 39.04C42.2067 38.7333 42.34 38.2733 42.34 37.66V36.2H45.04V37.56C45.04 38.2267 44.9267 38.82 44.7 39.34C44.4867 39.8467 44.0867 40.2133 43.5 40.44C44.06 40.6533 44.44 40.9867 44.64 41.44C44.8533 41.88 44.96 42.3933 44.96 42.98V47H42.26V43.28C42.26 42.6 42.1267 42.1267 41.86 41.86C41.6067 41.5933 41.14 41.46 40.46 41.46H37.84V47H35.14ZM40.007 34.72V32.94H38.447V31.1H41.827V32.88H46.107L46.007 34.72H40.007ZM51.407 47.2C50.5137 47.2 49.6804 47.12 48.907 46.96C48.1337 46.7867 47.4804 46.5867 46.947 46.36V40.68H51.527L51.647 42.66H49.507V44.84C49.7604 44.92 50.0604 44.9867 50.407 45.04C50.767 45.08 51.107 45.1 51.427 45.1C52.5204 45.1 53.287 44.84 53.727 44.32C54.167 43.8 54.387 42.9067 54.387 41.64C54.387 40.7333 54.267 40.0267 54.027 39.52C53.8004 39 53.4204 38.6333 52.887 38.42C52.367 38.2067 51.6537 38.1 50.747 38.1C50.1604 38.1 49.547 38.1467 48.907 38.24C48.2804 38.32 47.6737 38.4533 47.087 38.64V36.62C47.687 36.42 48.3737 36.2667 49.147 36.16C49.9204 36.0533 50.6737 36 51.407 36C53.3537 36 54.7604 36.4867 55.627 37.46C56.507 38.42 56.947 39.8133 56.947 41.64C56.947 43.4267 56.507 44.8 55.627 45.76C54.7604 46.72 53.3537 47.2 51.407 47.2ZM62.8914 47.2C62.5314 47.2 62.1447 47.1733 61.7314 47.12C61.3314 47.0667 60.9781 46.9933 60.6714 46.9L57.6314 39.5H60.2514L62.6314 45.28C63.6314 45.28 64.3514 44.9467 64.7914 44.28C65.2447 43.6 65.4714 42.5933 65.4714 41.26C65.4714 40.46 65.3914 39.8333 65.2314 39.38C65.0847 38.9267 64.8381 38.6067 64.4914 38.42C64.1447 38.22 63.6647 38.12 63.0514 38.12H62.2314V36.2H63.4314C65.0181 36.2 66.1781 36.62 66.9114 37.46C67.6581 38.2867 68.0314 39.5533 68.0314 41.26C68.0314 42.66 67.8114 43.8 67.3714 44.68C66.9314 45.5467 66.3247 46.1867 65.5514 46.6C64.7914 47 63.9047 47.2 62.8914 47.2ZM74.5183 47.2C72.9316 47.2 71.6783 46.8267 70.7583 46.08C69.8383 45.32 69.3783 44.18 69.3783 42.66V36.2H72.0783V42.7C72.0783 44.3 72.8916 45.1 74.5183 45.1C76.1449 45.1 76.9583 44.3 76.9583 42.7V33H79.6583V42.66C79.6583 44.18 79.1983 45.32 78.2783 46.08C77.3583 46.8267 76.1049 47.2 74.5183 47.2ZM85.6745 47.2C84.9279 47.2 84.2079 47.1467 83.5145 47.04C82.8345 46.9333 82.2812 46.7933 81.8545 46.62V44.44C82.3612 44.6533 82.9145 44.82 83.5145 44.94C84.1279 45.0467 84.6812 45.1 85.1745 45.1C86.0412 45.1 86.6679 45.0333 87.0545 44.9C87.4545 44.7667 87.6545 44.4933 87.6545 44.08C87.6545 43.76 87.5479 43.5133 87.3345 43.34C87.1345 43.1667 86.8212 43.0133 86.3945 42.88C85.9679 42.7333 85.4212 42.5467 84.7545 42.32C83.7812 41.9733 83.0145 41.5867 82.4545 41.16C81.9079 40.72 81.6345 40.0733 81.6345 39.22C81.6345 38.26 82.0079 37.4867 82.7545 36.9C83.5012 36.3 84.6279 36 86.1345 36C86.7612 36 87.3879 36.0467 88.0145 36.14C88.6412 36.2333 89.1545 36.3467 89.5545 36.48V38.64C89.1145 38.4533 88.6079 38.32 88.0345 38.24C87.4745 38.1467 86.9679 38.1 86.5145 38.1C85.8879 38.1 85.3412 38.1733 84.8745 38.32C84.4212 38.4533 84.1945 38.7333 84.1945 39.16C84.1945 39.4267 84.3079 39.64 84.5345 39.8C84.7745 39.96 85.1079 40.1067 85.5345 40.24C85.9745 40.3733 86.4945 40.5467 87.0945 40.76C87.8412 41.0133 88.4412 41.28 88.8945 41.56C89.3612 41.84 89.6945 42.18 89.8945 42.58C90.1079 42.98 90.2145 43.48 90.2145 44.08C90.2145 45.1333 89.8079 45.92 88.9945 46.44C88.1945 46.9467 87.0879 47.2 85.6745 47.2ZM91.6931 40.56V37.6H93.9731V38.58H96.7531L96.6731 40.56H91.6931ZM91.6931 45.92V42.96H93.9731V43.94H96.7531L96.6731 45.92H91.6931ZM103.218 47.2C101.605 47.2 100.391 46.8267 99.578 46.08C98.7646 45.3333 98.358 44.3133 98.358 43.02V42.34C98.358 41.8867 98.4446 41.48 98.618 41.12C98.7913 40.76 98.9846 40.44 99.198 40.16C99.4246 39.88 99.6246 39.62 99.798 39.38C99.9713 39.14 100.058 38.9133 100.058 38.7C100.058 38.5 100.011 38.3667 99.918 38.3C99.8246 38.2333 99.658 38.2 99.418 38.2H98.118L98.338 36.2H101.138C102.245 36.2 102.798 36.7133 102.798 37.74C102.798 38.1933 102.711 38.6067 102.538 38.98C102.365 39.34 102.158 39.6867 101.918 40.02C101.691 40.3533 101.491 40.7067 101.318 41.08C101.145 41.44 101.058 41.8533 101.058 42.32V43.18C101.058 44.46 101.778 45.1 103.218 45.1C104.685 45.1 105.418 44.4333 105.418 43.1V41.84C105.418 41.3333 105.331 40.9733 105.158 40.76C104.985 40.5467 104.678 40.44 104.238 40.44H103.678L103.798 38.56H104.158C104.598 38.56 104.918 38.4467 105.118 38.22C105.318 37.9933 105.418 37.6333 105.418 37.14V36H108.118V37.08C108.118 37.6933 108.025 38.1933 107.838 38.58C107.651 38.9533 107.285 39.26 106.738 39.5C107.298 39.7533 107.665 40.08 107.838 40.48C108.025 40.8667 108.118 41.3533 108.118 41.94V42.98C108.118 44.2733 107.685 45.3 106.818 46.06C105.951 46.82 104.751 47.2 103.218 47.2ZM105.812 52.06V49.74H104.612L104.712 48.02H108.092V52.06H105.812ZM116.732 47.2C115.985 47.2 115.312 47.0867 114.712 46.86C114.112 46.6333 113.572 46.3267 113.092 45.94L112.972 47H110.492V36.2H113.192V43.98C113.485 44.3 113.872 44.5667 114.352 44.78C114.845 44.9933 115.338 45.1 115.832 45.1C116.472 45.1 116.952 44.9467 117.272 44.64C117.605 44.32 117.772 43.7933 117.772 43.06V36.2H120.472V43.22C120.472 44.4733 120.138 45.4533 119.472 46.16C118.805 46.8533 117.892 47.2 116.732 47.2Z" fill="black"/>
<rect x="34" y="71" width="163" height="33" rx="16.5" fill="#FAFAFA"/>
<circle cx="54.5" cy="87.5" r="12.5" fill="#FFE7D0"/>
<path fill-rule="evenodd" clip-rule="evenodd" d="M49 81.5C49 80.9696 49.2107 80.4609 49.5858 80.0858C49.9609 79.7107 50.4696 79.5 51 79.5H59C59.5304 79.5 60.0391 79.7107 60.4142 80.0858C60.7893 80.4609 61 80.9696 61 81.5V93.5C61.2652 93.5 61.5196 93.6054 61.7071 93.7929C61.8946 93.9804 62 94.2348 62 94.5C62 94.7652 61.8946 95.0196 61.7071 95.2071C61.5196 95.3946 61.2652 95.5 61 95.5H58C57.7348 95.5 57.4804 95.3946 57.2929 95.2071C57.1054 95.0196 57 94.7652 57 94.5V92.5C57 92.2348 56.8946 91.9804 56.7071 91.7929C56.5196 91.6054 56.2652 91.5 56 91.5H54C53.7348 91.5 53.4804 91.6054 53.2929 91.7929C53.1054 91.9804 53 92.2348 53 92.5V94.5C53 94.7652 52.8946 95.0196 52.7071 95.2071C52.5196 95.3946 52.2652 95.5 52 95.5H49C48.7348 95.5 48.4804 95.3946 48.2929 95.2071C48.1054 95.0196 48 94.7652 48 94.5C48 94.2348 48.1054 93.9804 48.2929 93.7929C48.4804 93.6054 48.7348 93.5 49 93.5V81.5ZM52 82.5H54V84.5H52V82.5ZM54 86.5H52V88.5H54V86.5ZM56 82.5H58V84.5H56V82.5ZM58 86.5H56V88.5H58V86.5Z" fill="#FD7427"/>
<path d="M79.396 92.14C78.2853 92.14 77.408 91.8787 76.764 91.356C76.12 90.824 75.798 90.026 75.798 88.962V84.44H77.688V88.99C77.688 90.11 78.2573 90.67 79.396 90.67C80.5347 90.67 81.104 90.11 81.104 88.99V82.2H82.994V88.962C82.994 90.026 82.672 90.824 82.028 91.356C81.384 91.8787 80.5067 92.14 79.396 92.14ZM87.2054 92.14C86.6827 92.14 86.1787 92.1027 85.6934 92.028C85.2174 91.9533 84.83 91.8553 84.5314 91.734V90.208C84.886 90.3573 85.2734 90.474 85.6934 90.558C86.1227 90.6327 86.51 90.67 86.8554 90.67C87.462 90.67 87.9007 90.6233 88.1714 90.53C88.4514 90.4367 88.5914 90.2453 88.5914 89.956C88.5914 89.732 88.5167 89.5593 88.3674 89.438C88.2274 89.3167 88.008 89.2093 87.7094 89.116C87.4107 89.0133 87.028 88.8827 86.5614 88.724C85.88 88.4813 85.3434 88.2107 84.9514 87.912C84.5687 87.604 84.3774 87.1513 84.3774 86.554C84.3774 85.882 84.6387 85.3407 85.1614 84.93C85.684 84.51 86.4727 84.3 87.5274 84.3C87.966 84.3 88.4047 84.3327 88.8434 84.398C89.282 84.4633 89.6414 84.5427 89.9214 84.636V86.148C89.6134 86.0173 89.2587 85.924 88.8574 85.868C88.4654 85.8027 88.1107 85.77 87.7934 85.77C87.3547 85.77 86.972 85.8213 86.6454 85.924C86.328 86.0173 86.1694 86.2133 86.1694 86.512C86.1694 86.6987 86.2487 86.848 86.4074 86.96C86.5754 87.072 86.8087 87.1747 87.1074 87.268C87.4154 87.3613 87.7794 87.4827 88.1994 87.632C88.722 87.8093 89.142 87.996 89.4594 88.192C89.786 88.388 90.0194 88.626 90.1594 88.906C90.3087 89.186 90.3834 89.536 90.3834 89.956C90.3834 90.6933 90.0987 91.244 89.5294 91.608C88.9694 91.9627 88.1947 92.14 87.2054 92.14ZM91.4184 87.492V85.42H93.0144V86.106H94.9604L94.9044 87.492H91.4184ZM91.4184 91.244V89.172H93.0144V89.858H94.9604L94.9044 91.244H91.4184ZM97.9178 92C97.3111 92 96.8818 91.874 96.6298 91.622C96.3871 91.37 96.2658 90.9733 96.2658 90.432V84.44H98.1558V89.942C98.1558 90.334 98.3471 90.53 98.7298 90.53H99.2058V92H97.9178ZM100.39 92V90.53H100.852C101.039 90.53 101.165 90.4927 101.23 90.418C101.296 90.3433 101.328 90.2127 101.328 90.026V89.592C101.328 89.1627 101.389 88.7893 101.51 88.472C101.632 88.1547 101.907 87.9167 102.336 87.758L100.908 87.38V85.574C101.291 85.2473 101.8 84.9533 102.434 84.692C103.078 84.4307 103.811 84.3 104.632 84.3C105.696 84.3 106.532 84.538 107.138 85.014C107.754 85.49 108.062 86.2973 108.062 87.436V92H106.172V87.394C106.172 86.806 106.042 86.3907 105.78 86.148C105.528 85.896 105.113 85.77 104.534 85.77C104.114 85.77 103.727 85.8307 103.372 85.952C103.027 86.0733 102.747 86.2273 102.532 86.414V86.61L104.086 87.03V88.178C103.732 88.29 103.503 88.4487 103.4 88.654C103.298 88.85 103.246 89.1673 103.246 89.606V90.124C103.246 90.7867 103.088 91.2673 102.77 91.566C102.453 91.8553 101.996 92 101.398 92H100.39ZM109.732 92V84.44H111.468L111.552 85.182C111.888 84.9113 112.275 84.6967 112.714 84.538C113.162 84.3793 113.647 84.3 114.17 84.3C114.963 84.3 115.584 84.5427 116.032 85.028C116.489 85.5133 116.718 86.1807 116.718 87.03V92H114.828V87.142C114.828 86.6567 114.711 86.3067 114.478 86.092C114.254 85.8773 113.918 85.77 113.47 85.77C113.124 85.77 112.779 85.8447 112.434 85.994C112.098 86.1433 111.827 86.33 111.622 86.554V92H109.732Z" fill="#33302E"/>
<path d="M126.882 92V84.44H128.408V86.82H130.592C131.143 86.82 131.521 86.7033 131.726 86.47C131.941 86.2273 132.048 85.8773 132.048 85.42V84.44H133.56V85.378C133.56 85.8447 133.476 86.2553 133.308 86.61C133.149 86.9647 132.855 87.2213 132.426 87.38C132.855 87.5293 133.14 87.7673 133.28 88.094C133.42 88.4113 133.49 88.7847 133.49 89.214V92H131.978V89.396C131.978 88.8547 131.875 88.486 131.67 88.29C131.465 88.0847 131.087 87.982 130.536 87.982H128.408V92H126.882ZM130.347 83.292V82.004H129.241V80.954H131.397V82.228H134.421L134.365 83.292H130.347ZM138.159 92.14C137.562 92.14 136.997 92.084 136.465 91.972C135.943 91.86 135.504 91.7293 135.149 91.58V87.688H138.145L138.215 88.85H136.619V90.684C136.834 90.7587 137.077 90.8193 137.347 90.866C137.627 90.9033 137.898 90.922 138.159 90.922C138.99 90.922 139.573 90.726 139.909 90.334C140.255 89.9327 140.427 89.2373 140.427 88.248C140.427 87.5573 140.343 87.016 140.175 86.624C140.007 86.2227 139.727 85.9427 139.335 85.784C138.953 85.616 138.43 85.532 137.767 85.532C137.366 85.532 136.946 85.56 136.507 85.616C136.069 85.672 135.653 85.7653 135.261 85.896V84.72C135.653 84.5893 136.101 84.4867 136.605 84.412C137.119 84.3373 137.632 84.3 138.145 84.3C139.471 84.3 140.427 84.636 141.015 85.308C141.603 85.9707 141.897 86.9507 141.897 88.248C141.897 89.5173 141.603 90.4833 141.015 91.146C140.427 91.8087 139.475 92.14 138.159 92.14ZM146.352 92.14C146.137 92.14 145.899 92.126 145.638 92.098C145.377 92.07 145.148 92.0233 144.952 91.958L142.824 86.778H144.308L146.03 90.978C146.833 91.0153 147.416 90.7867 147.78 90.292C148.144 89.788 148.326 89.018 148.326 87.982C148.326 87.3753 148.27 86.8993 148.158 86.554C148.046 86.1993 147.855 85.952 147.584 85.812C147.323 85.6627 146.959 85.588 146.492 85.588H145.96V84.44H146.688C147.771 84.44 148.559 84.7293 149.054 85.308C149.549 85.8867 149.796 86.7733 149.796 87.968C149.796 88.9573 149.647 89.76 149.348 90.376C149.049 90.9827 148.639 91.4307 148.116 91.72C147.603 92 147.015 92.14 146.352 92.14ZM154.744 92.14C153.662 92.14 152.812 91.8833 152.196 91.37C151.59 90.8567 151.286 90.0867 151.286 89.06V84.44H152.812V89.116C152.812 89.7413 152.976 90.1987 153.302 90.488C153.638 90.7773 154.119 90.922 154.744 90.922C155.379 90.922 155.86 90.7773 156.186 90.488C156.522 90.1987 156.69 89.7413 156.69 89.116V82.2H158.202V89.06C158.202 90.0867 157.899 90.8567 157.292 91.37C156.686 91.8833 155.836 92.14 154.744 92.14ZM162.46 92.14C161.965 92.14 161.484 92.1073 161.018 92.042C160.56 91.9767 160.182 91.8833 159.884 91.762V90.488C160.238 90.628 160.621 90.7353 161.032 90.81C161.452 90.8847 161.834 90.922 162.18 90.922C162.824 90.922 163.3 90.866 163.608 90.754C163.916 90.6327 164.07 90.3853 164.07 90.012C164.07 89.7413 163.99 89.536 163.832 89.396C163.673 89.256 163.44 89.1347 163.132 89.032C162.824 88.92 162.441 88.7893 161.984 88.64C161.554 88.4907 161.167 88.3273 160.822 88.15C160.476 87.9727 160.201 87.7487 159.996 87.478C159.8 87.2073 159.702 86.8667 159.702 86.456C159.702 85.7933 159.954 85.2707 160.458 84.888C160.962 84.496 161.722 84.3 162.74 84.3C163.169 84.3 163.594 84.3327 164.014 84.398C164.434 84.4633 164.779 84.5427 165.05 84.636V85.896C164.742 85.7747 164.396 85.686 164.014 85.63C163.64 85.5647 163.29 85.532 162.964 85.532C162.422 85.532 161.988 85.5927 161.662 85.714C161.335 85.826 161.172 86.0593 161.172 86.414C161.172 86.6473 161.256 86.834 161.424 86.974C161.592 87.1047 161.83 87.226 162.138 87.338C162.455 87.4407 162.833 87.5667 163.272 87.716C163.766 87.8747 164.182 88.052 164.518 88.248C164.854 88.4347 165.106 88.668 165.274 88.948C165.451 89.2187 165.54 89.5733 165.54 90.012C165.54 90.7493 165.26 91.2907 164.7 91.636C164.149 91.972 163.402 92.14 162.46 92.14ZM166.756 87.366V85.546H168.058V86.232H170.116L170.06 87.366H166.756ZM166.756 91.174V89.354H168.058V90.054H170.116L170.06 91.174H166.756ZM174.683 92.14C173.619 92.14 172.812 91.8927 172.261 91.398C171.72 90.9033 171.449 90.208 171.449 89.312V88.57C171.449 88.2713 171.51 87.996 171.631 87.744C171.762 87.492 171.907 87.2633 172.065 87.058C172.233 86.8433 172.378 86.6473 172.499 86.47C172.63 86.2833 172.695 86.1107 172.695 85.952C172.695 85.8027 172.663 85.7047 172.597 85.658C172.532 85.6113 172.415 85.588 172.247 85.588H171.281L171.407 84.44H173.171C173.881 84.44 174.235 84.7807 174.235 85.462C174.235 85.7793 174.17 86.064 174.039 86.316C173.918 86.568 173.769 86.8107 173.591 87.044C173.423 87.2773 173.274 87.52 173.143 87.772C173.022 88.0147 172.961 88.2853 172.961 88.584V89.438C172.961 89.9513 173.111 90.3293 173.409 90.572C173.717 90.8053 174.142 90.922 174.683 90.922C175.234 90.922 175.659 90.8007 175.957 90.558C176.265 90.3153 176.419 89.928 176.419 89.396V88.472C176.419 88.0333 176.349 87.73 176.209 87.562C176.069 87.3847 175.808 87.296 175.425 87.296H175.033L175.103 86.19H175.383C175.775 86.19 176.046 86.0967 176.195 85.91C176.345 85.714 176.419 85.4153 176.419 85.014V84.3H177.945V84.986C177.945 85.4247 177.88 85.7887 177.749 86.078C177.619 86.358 177.348 86.5773 176.937 86.736C177.367 86.9133 177.642 87.1467 177.763 87.436C177.885 87.7253 177.945 88.0847 177.945 88.514V89.298C177.945 90.194 177.656 90.894 177.077 91.398C176.499 91.8927 175.701 92.14 174.683 92.14ZM176.644 95.528V93.792H175.762L175.832 92.798H177.946V95.528H176.644ZM183.84 92.14C183.27 92.14 182.771 92.0513 182.342 91.874C181.922 91.6967 181.539 91.4633 181.194 91.174L181.11 92H179.724V84.44H181.25V90.012C181.492 90.2733 181.796 90.4927 182.16 90.67C182.524 90.838 182.916 90.922 183.336 90.922C183.858 90.922 184.25 90.8007 184.512 90.558C184.773 90.306 184.904 89.8953 184.904 89.326V84.44H186.416V89.396C186.416 90.2733 186.187 90.95 185.73 91.426C185.272 91.902 184.642 92.14 183.84 92.14Z" fill="#FD7427"/>
<rect x="34" y="112" width="219" height="33" rx="16.5" fill="#FAFAFA"/>
<circle cx="54.5" cy="128.5" r="12.5" fill="#FFE7D0"/>
<g clip-path="url(#clip0_552_8832)">
<path fill-rule="evenodd" clip-rule="evenodd" d="M50.0505 122.55C51.3633 121.238 53.1439 120.5 55.0005 120.5C56.8571 120.5 58.6377 121.238 59.9505 122.55C61.2633 123.863 62.0009 125.644 62.0009 127.5C62.0009 129.357 61.2633 131.138 59.9505 132.45L55.0005 137.4L50.0505 132.45C49.4004 131.8 48.8847 131.029 48.5329 130.179C48.1811 129.33 48 128.42 48 127.5C48 126.581 48.1811 125.671 48.5329 124.821C48.8847 123.972 49.4004 123.2 50.0505 122.55ZM55.0005 129.5C55.5309 129.5 56.0396 129.29 56.4147 128.915C56.7898 128.539 57.0005 128.031 57.0005 127.5C57.0005 126.97 56.7898 126.461 56.4147 126.086C56.0396 125.711 55.5309 125.5 55.0005 125.5C54.4701 125.5 53.9614 125.711 53.5863 126.086C53.2112 126.461 53.0005 126.97 53.0005 127.5C53.0005 128.031 53.2112 128.539 53.5863 128.915C53.9614 129.29 54.4701 129.5 55.0005 129.5Z" fill="#FD7427"/>
</g>
<path d="M78.192 133.14C77.716 133.14 77.2773 133.065 76.876 132.916C76.4747 132.757 76.1527 132.505 75.91 132.16C75.6767 131.805 75.56 131.339 75.56 130.76C75.56 130.004 75.8167 129.425 76.33 129.024C76.8433 128.613 77.5807 128.408 78.542 128.408H80.684V128.044C80.684 127.577 80.5533 127.251 80.292 127.064C80.0307 126.868 79.5687 126.77 78.906 126.77C78.4487 126.77 78.0147 126.803 77.604 126.868C77.2027 126.924 76.8013 127.017 76.4 127.148V125.734C76.7827 125.613 77.226 125.51 77.73 125.426C78.234 125.342 78.7287 125.3 79.214 125.3C79.466 125.3 79.704 125.314 79.928 125.342C80.152 125.361 80.362 125.393 80.558 125.44H83.19L83.092 126.882H82.238C82.35 127.059 82.434 127.265 82.49 127.498C82.546 127.731 82.574 127.979 82.574 128.24V133H80.684V129.794H78.654C78.2527 129.794 77.9353 129.864 77.702 130.004C77.4687 130.144 77.352 130.396 77.352 130.76C77.352 131.105 77.4547 131.343 77.66 131.474C77.8653 131.605 78.2107 131.67 78.696 131.67C78.8733 131.67 79.046 131.661 79.214 131.642C79.3913 131.623 79.5407 131.595 79.662 131.558V132.944C79.4847 133 79.2653 133.047 79.004 133.084C78.752 133.121 78.4813 133.14 78.192 133.14ZM86.019 133C85.5897 133 85.2397 132.86 84.969 132.58C84.7077 132.3 84.577 131.945 84.577 131.516V130.592C84.577 130.163 84.647 129.785 84.787 129.458C84.9363 129.122 85.2257 128.889 85.655 128.758L84.227 128.38V126.574C84.6097 126.247 85.1183 125.953 85.753 125.692C86.397 125.431 87.1297 125.3 87.951 125.3C88.707 125.3 89.351 125.398 89.883 125.594C90.4243 125.79 90.835 126.117 91.115 126.574C91.4043 127.031 91.549 127.652 91.549 128.436V133H89.659V128.394C89.659 127.806 89.519 127.391 89.239 127.148C88.9683 126.896 88.5063 126.77 87.853 126.77C87.433 126.77 87.0457 126.831 86.691 126.952C86.3457 127.073 86.0657 127.227 85.851 127.414V127.61L87.405 128.03V129.178C87.0317 129.271 86.7797 129.425 86.649 129.64C86.5277 129.845 86.467 130.167 86.467 130.606V131.012C86.467 131.199 86.509 131.334 86.593 131.418C86.677 131.493 86.8077 131.53 86.985 131.53H87.727V133H86.019ZM95.89 133V128.352C95.89 127.848 95.792 127.461 95.596 127.19C95.4 126.91 95.008 126.77 94.42 126.77C94.112 126.77 93.7853 126.807 93.44 126.882C93.0946 126.947 92.7866 127.031 92.516 127.134V125.748C92.796 125.617 93.1413 125.51 93.552 125.426C93.9626 125.342 94.3733 125.3 94.784 125.3C95.848 125.3 96.6133 125.529 97.08 125.986C97.5466 126.434 97.78 127.134 97.78 128.086V133H95.89ZM102.068 133.14C101.256 133.14 100.617 132.897 100.15 132.412C99.6837 131.917 99.4503 131.231 99.4503 130.354V125.44H101.34V130.242C101.34 130.755 101.452 131.124 101.676 131.348C101.91 131.563 102.25 131.67 102.698 131.67C103.053 131.67 103.398 131.595 103.734 131.446C104.07 131.297 104.341 131.11 104.546 130.886V125.44H106.436V133H104.7L104.616 132.258C104.28 132.529 103.902 132.743 103.482 132.902C103.062 133.061 102.591 133.14 102.068 133.14ZM108.105 133V125.44H109.841L109.925 126.182C110.261 125.911 110.648 125.697 111.087 125.538C111.535 125.379 112.02 125.3 112.543 125.3C113.336 125.3 113.957 125.543 114.405 126.028C114.862 126.513 115.091 127.181 115.091 128.03V133H113.201V128.142C113.201 127.657 113.084 127.307 112.851 127.092C112.627 126.877 112.291 126.77 111.843 126.77C111.497 126.77 111.152 126.845 110.807 126.994C110.471 127.143 110.2 127.33 109.995 127.554V133H108.105ZM108.975 124.404L109.073 123.116H113.553V121.982H115.093V124.404H108.975ZM113.483 121.38V119.42H115.023V121.38H113.483Z" fill="#33302E"/>
<path d="M127.71 133.14C127.113 133.14 126.548 133.084 126.016 132.972C125.493 132.86 125.055 132.729 124.7 132.58V128.688H127.696L127.766 129.85H126.17V131.684C126.385 131.759 126.627 131.819 126.898 131.866C127.178 131.903 127.449 131.922 127.71 131.922C128.541 131.922 129.124 131.726 129.46 131.334C129.805 130.933 129.978 130.237 129.978 129.248C129.978 128.557 129.894 128.016 129.726 127.624C129.558 127.223 129.278 126.943 128.886 126.784C128.503 126.616 127.981 126.532 127.318 126.532C126.917 126.532 126.497 126.56 126.058 126.616C125.619 126.672 125.204 126.765 124.812 126.896V125.72C125.204 125.589 125.652 125.487 126.156 125.412C126.669 125.337 127.183 125.3 127.696 125.3C129.021 125.3 129.978 125.636 130.566 126.308C131.154 126.971 131.448 127.951 131.448 129.248C131.448 130.517 131.154 131.483 130.566 132.146C129.978 132.809 129.026 133.14 127.71 133.14ZM135.791 133V128.24C135.791 127.857 135.749 127.54 135.665 127.288C135.581 127.036 135.422 126.849 135.189 126.728C134.955 126.597 134.61 126.532 134.153 126.532C133.854 126.532 133.527 126.565 133.173 126.63C132.827 126.695 132.515 126.784 132.235 126.896V125.72C132.515 125.599 132.851 125.501 133.243 125.426C133.644 125.342 134.045 125.3 134.447 125.3C135.455 125.3 136.183 125.519 136.631 125.958C137.088 126.397 137.317 127.092 137.317 128.044V133H135.791ZM139.101 133V128.212C139.101 127.297 139.376 126.583 139.927 126.07C140.477 125.557 141.345 125.3 142.531 125.3C143.725 125.3 144.589 125.557 145.121 126.07C145.662 126.583 145.933 127.297 145.933 128.212V133H144.407V128.072C144.407 127.54 144.243 127.153 143.917 126.91C143.59 126.658 143.128 126.532 142.531 126.532C141.905 126.532 141.429 126.658 141.103 126.91C140.785 127.153 140.627 127.54 140.627 128.072V129.626C141.037 129.29 141.527 129.122 142.097 129.122H143.007L143.063 130.34H142.055C141.485 130.34 141.009 130.499 140.627 130.816V133H139.101ZM150.57 133V128.24C150.57 127.857 150.528 127.54 150.444 127.288C150.36 127.036 150.201 126.849 149.968 126.728C149.735 126.597 149.389 126.532 148.932 126.532C148.633 126.532 148.307 126.565 147.952 126.63C147.607 126.695 147.294 126.784 147.014 126.896V125.72C147.294 125.599 147.63 125.501 148.022 125.426C148.423 125.342 148.825 125.3 149.226 125.3C150.234 125.3 150.962 125.519 151.41 125.958C151.867 126.397 152.096 127.092 152.096 128.044V133H150.57ZM156.358 133.14C155.863 133.14 155.383 133.107 154.916 133.042C154.459 132.977 154.081 132.883 153.782 132.762V131.488C154.137 131.628 154.519 131.735 154.93 131.81C155.35 131.885 155.733 131.922 156.078 131.922C156.722 131.922 157.198 131.866 157.506 131.754C157.814 131.633 157.968 131.385 157.968 131.012C157.968 130.741 157.889 130.536 157.73 130.396C157.571 130.256 157.338 130.135 157.03 130.032C156.722 129.92 156.339 129.789 155.882 129.64C155.453 129.491 155.065 129.327 154.72 129.15C154.375 128.973 154.099 128.749 153.894 128.478C153.698 128.207 153.6 127.867 153.6 127.456C153.6 126.793 153.852 126.271 154.356 125.888C154.86 125.496 155.621 125.3 156.638 125.3C157.067 125.3 157.492 125.333 157.912 125.398C158.332 125.463 158.677 125.543 158.948 125.636V126.896C158.64 126.775 158.295 126.686 157.912 126.63C157.539 126.565 157.189 126.532 156.862 126.532C156.321 126.532 155.887 126.593 155.56 126.714C155.233 126.826 155.07 127.059 155.07 127.414C155.07 127.647 155.154 127.834 155.322 127.974C155.49 128.105 155.728 128.226 156.036 128.338C156.353 128.441 156.731 128.567 157.17 128.716C157.665 128.875 158.08 129.052 158.416 129.248C158.752 129.435 159.004 129.668 159.172 129.948C159.349 130.219 159.438 130.573 159.438 131.012C159.438 131.749 159.158 132.291 158.598 132.636C158.047 132.972 157.301 133.14 156.358 133.14ZM162.433 133C161.919 133 161.546 132.874 161.313 132.622C161.079 132.37 160.963 132.011 160.963 131.544V125.44H162.475V131.166C162.475 131.586 162.68 131.796 163.091 131.796H163.735V133H162.433ZM167.706 133.14C167.211 133.14 166.73 133.107 166.264 133.042C165.806 132.977 165.428 132.883 165.13 132.762V131.488C165.484 131.628 165.867 131.735 166.278 131.81C166.698 131.885 167.08 131.922 167.426 131.922C168.07 131.922 168.546 131.866 168.854 131.754C169.162 131.633 169.316 131.385 169.316 131.012C169.316 130.741 169.236 130.536 169.078 130.396C168.919 130.256 168.686 130.135 168.378 130.032C168.07 129.92 167.687 129.789 167.23 129.64C166.8 129.491 166.413 129.327 166.068 129.15C165.722 128.973 165.447 128.749 165.242 128.478C165.046 128.207 164.948 127.867 164.948 127.456C164.948 126.793 165.2 126.271 165.704 125.888C166.208 125.496 166.968 125.3 167.986 125.3C168.415 125.3 168.84 125.333 169.26 125.398C169.68 125.463 170.025 125.543 170.296 125.636V126.896C169.988 126.775 169.642 126.686 169.26 126.63C168.886 126.565 168.536 126.532 168.21 126.532C167.668 126.532 167.234 126.593 166.908 126.714C166.581 126.826 166.418 127.059 166.418 127.414C166.418 127.647 166.502 127.834 166.67 127.974C166.838 128.105 167.076 128.226 167.384 128.338C167.701 128.441 168.079 128.567 168.518 128.716C169.012 128.875 169.428 129.052 169.764 129.248C170.1 129.435 170.352 129.668 170.52 129.948C170.697 130.219 170.786 130.573 170.786 131.012C170.786 131.749 170.506 132.291 169.946 132.636C169.395 132.972 168.648 133.14 167.706 133.14ZM164.666 124.292L164.736 123.228H169.244V122.066H170.504V124.292H164.666ZM175.446 133.14C174.774 133.14 174.177 133.061 173.654 132.902C173.132 132.743 172.716 132.491 172.408 132.146C172.11 131.801 171.96 131.343 171.96 130.774C171.96 130.391 172.049 130.055 172.226 129.766C172.404 129.467 172.665 129.234 173.01 129.066C172.721 128.954 172.478 128.763 172.282 128.492C172.096 128.221 172.002 127.885 172.002 127.484C172.002 126.765 172.222 126.224 172.66 125.86C173.108 125.487 173.678 125.3 174.368 125.3C174.639 125.3 174.872 125.319 175.068 125.356C175.264 125.384 175.442 125.426 175.6 125.482V126.644C175.33 126.569 175.012 126.532 174.648 126.532C174.275 126.532 173.986 126.607 173.78 126.756C173.575 126.905 173.472 127.148 173.472 127.484C173.472 127.839 173.589 128.095 173.822 128.254C174.056 128.403 174.378 128.478 174.788 128.478H175.586L175.656 129.612H174.76C173.874 129.612 173.43 129.999 173.43 130.774C173.43 131.157 173.589 131.446 173.906 131.642C174.224 131.829 174.714 131.922 175.376 131.922C176.692 131.922 177.35 131.385 177.35 130.312V125.44H178.862V130.13C178.862 131.147 178.578 131.903 178.008 132.398C177.439 132.893 176.585 133.14 175.446 133.14ZM183.212 133.14C182.4 133.14 181.765 132.902 181.308 132.426C180.86 131.95 180.636 131.273 180.636 130.396V125.44H182.162V130.326C182.162 130.895 182.288 131.306 182.54 131.558C182.792 131.801 183.184 131.922 183.716 131.922C184.127 131.922 184.519 131.838 184.892 131.67C185.265 131.493 185.573 131.273 185.816 131.012V125.44H187.328V133H185.942L185.872 132.174C185.527 132.463 185.135 132.697 184.696 132.874C184.267 133.051 183.772 133.14 183.212 133.14ZM191.59 133.14C191.096 133.14 190.615 133.107 190.148 133.042C189.691 132.977 189.313 132.883 189.014 132.762V131.488C189.369 131.628 189.752 131.735 190.162 131.81C190.582 131.885 190.965 131.922 191.31 131.922C191.954 131.922 192.43 131.866 192.738 131.754C193.046 131.633 193.2 131.385 193.2 131.012C193.2 130.741 193.121 130.536 192.962 130.396C192.804 130.256 192.57 130.135 192.262 130.032C191.954 129.92 191.572 129.789 191.114 129.64C190.685 129.491 190.298 129.327 189.952 129.15C189.607 128.973 189.332 128.749 189.126 128.478C188.93 128.207 188.832 127.867 188.832 127.456C188.832 126.793 189.084 126.271 189.588 125.888C190.092 125.496 190.853 125.3 191.87 125.3C192.3 125.3 192.724 125.333 193.144 125.398C193.564 125.463 193.91 125.543 194.18 125.636V126.896C193.872 126.775 193.527 126.686 193.144 126.63C192.771 126.565 192.421 126.532 192.094 126.532C191.553 126.532 191.119 126.593 190.792 126.714C190.466 126.826 190.302 127.059 190.302 127.414C190.302 127.647 190.386 127.834 190.554 127.974C190.722 128.105 190.96 128.226 191.268 128.338C191.586 128.441 191.964 128.567 192.402 128.716C192.897 128.875 193.312 129.052 193.648 129.248C193.984 129.435 194.236 129.668 194.404 129.948C194.582 130.219 194.67 130.573 194.67 131.012C194.67 131.749 194.39 132.291 193.83 132.636C193.28 132.972 192.533 133.14 191.59 133.14ZM198.043 133.14C197.175 133.14 196.419 133 195.775 132.72V131.516C196.055 131.637 196.358 131.735 196.685 131.81C197.021 131.885 197.352 131.922 197.679 131.922C198.314 131.922 198.818 131.833 199.191 131.656C199.564 131.479 199.83 131.194 199.989 130.802C200.157 130.401 200.241 129.873 200.241 129.22C200.241 128.249 200.04 127.559 199.639 127.148C199.247 126.737 198.589 126.532 197.665 126.532C197.329 126.532 197.002 126.569 196.685 126.644C196.368 126.709 196.064 126.807 195.775 126.938V125.72C196.092 125.589 196.433 125.487 196.797 125.412C197.17 125.337 197.572 125.3 198.001 125.3C199.252 125.3 200.18 125.636 200.787 126.308C201.403 126.971 201.711 127.941 201.711 129.22C201.711 130.489 201.417 131.46 200.829 132.132C200.25 132.804 199.322 133.14 198.043 133.14ZM207.242 133.14C206.673 133.14 206.173 133.051 205.744 132.874C205.324 132.697 204.941 132.463 204.596 132.174L204.512 133H203.126V125.44H204.652V131.012C204.895 131.273 205.198 131.493 205.562 131.67C205.926 131.838 206.318 131.922 206.738 131.922C207.261 131.922 207.653 131.801 207.914 131.558C208.175 131.306 208.306 130.895 208.306 130.326V125.44H209.818V130.396C209.818 131.273 209.589 131.95 209.132 132.426C208.675 132.902 208.045 133.14 207.242 133.14ZM218.777 133V131.026H214.269V129.948L218.959 123.984H220.289V129.794H221.213V131.026H220.289V133H218.777ZM215.753 129.836H219.015V125.72L215.753 129.836ZM228.765 133.14C227.701 133.14 226.894 132.893 226.343 132.398C225.802 131.903 225.531 131.208 225.531 130.312V129.57C225.531 129.271 225.592 128.996 225.713 128.744C225.844 128.492 225.989 128.263 226.147 128.058C226.315 127.843 226.46 127.647 226.581 127.47C226.712 127.283 226.777 127.111 226.777 126.952C226.777 126.803 226.745 126.705 226.679 126.658C226.614 126.611 226.497 126.588 226.329 126.588H225.363L225.489 125.44H227.253C227.963 125.44 228.317 125.781 228.317 126.462C228.317 126.779 228.252 127.064 228.121 127.316C228 127.568 227.851 127.811 227.673 128.044C227.505 128.277 227.356 128.52 227.225 128.772C227.104 129.015 227.043 129.285 227.043 129.584V130.438C227.043 130.951 227.193 131.329 227.491 131.572C227.799 131.805 228.224 131.922 228.765 131.922C229.316 131.922 229.741 131.801 230.039 131.558C230.347 131.315 230.501 130.928 230.501 130.396V129.472C230.501 129.033 230.431 128.73 230.291 128.562C230.151 128.385 229.89 128.296 229.507 128.296H229.115L229.185 127.19H229.465C229.857 127.19 230.128 127.097 230.277 126.91C230.427 126.714 230.501 126.415 230.501 126.014V125.3H232.027V125.986C232.027 126.425 231.962 126.789 231.831 127.078C231.701 127.358 231.43 127.577 231.019 127.736C231.449 127.913 231.724 128.147 231.845 128.436C231.967 128.725 232.027 129.085 232.027 129.514V130.298C232.027 131.194 231.738 131.894 231.159 132.398C230.581 132.893 229.783 133.14 228.765 133.14ZM228.71 124.292V122.248H229.97V123.228H233.596L233.526 124.292H228.71ZM230.173 121.338V120.246H229.305V119.266H231.167V120.358H233.323L233.267 121.338H230.173ZM236.382 133.14C235.57 133.14 234.935 132.902 234.478 132.426C234.03 131.95 233.806 131.273 233.806 130.396V125.44H235.332V130.326C235.332 130.895 235.458 131.306 235.71 131.558C235.962 131.801 236.354 131.922 236.886 131.922C237.296 131.922 237.688 131.838 238.062 131.67C238.435 131.493 238.743 131.273 238.986 131.012V125.44H240.498V133H239.112L239.042 132.174C238.696 132.463 238.304 132.697 237.866 132.874C237.436 133.051 236.942 133.14 236.382 133.14Z" fill="#FD7427"/>
</g>
</g>
<defs>
<filter id="filter0_dd_552_8832" x="0" y="0" width="321" height="203" filterUnits="userSpaceOnUse" color-interpolation-filters="sRGB">
<feFlood flood-opacity="0" result="BackgroundImageFix"/>
<feColorMatrix in="SourceAlpha" type="matrix" values="0 0 0 0 0 0 0 0 0 0 0 0 0 0 0 0 0 0 127 0" result="hardAlpha"/>
<feMorphology radius="1" operator="erode" in="SourceAlpha" result="effect1_dropShadow_552_8832"/>
<feOffset dy="4"/>
<feGaussianBlur stdDeviation="2"/>
<feComposite in2="hardAlpha" operator="out"/>
<feColorMatrix type="matrix" values="0 0 0 0 0.0470588 0 0 0 0 0.0470588 0 0 0 0 0.0509804 0 0 0 0.05 0"/>
<feBlend mode="normal" in2="BackgroundImageFix" result="effect1_dropShadow_552_8832"/>
<feColorMatrix in="SourceAlpha" type="matrix" values="0 0 0 0 0 0 0 0 0 0 0 0 0 0 0 0 0 0 127 0" result="hardAlpha"/>
<feMorphology radius="1" operator="erode" in="SourceAlpha" result="effect2_dropShadow_552_8832"/>
<feOffset dy="4"/>
<feGaussianBlur stdDeviation="7"/>
<feComposite in2="hardAlpha" operator="out"/>
<feColorMatrix type="matrix" values="0 0 0 0 0.992157 0 0 0 0 0.454902 0 0 0 0 0.152941 0 0 0 0.1 0"/>
<feBlend mode="normal" in2="effect1_dropShadow_552_8832" result="effect2_dropShadow_552_8832"/>
<feBlend mode="normal" in="SourceGraphic" in2="effect2_dropShadow_552_8832" result="shape"/>
</filter>
<filter id="filter1_b_552_8832" x="-17.4" y="-21.4" width="355.8" height="212.8" filterUnits="userSpaceOnUse" color-interpolation-filters="sRGB">
<feFlood flood-opacity="0" result="BackgroundImageFix"/>
<feGaussianBlur in="BackgroundImageFix" stdDeviation="15.2"/>
<feComposite in2="SourceAlpha" operator="in" result="effect1_backgroundBlur_552_8832"/>
<feBlend mode="normal" in="SourceGraphic" in2="effect1_backgroundBlur_552_8832" result="shape"/>
</filter>
<clipPath id="clip0_552_8832">
<rect width="14.0009" height="17.0004" fill="white" transform="translate(48 120.5)"/>
</clipPath>
</defs>
</svg>
