<svg width="19" height="18" viewBox="0 0 19 18" fill="none" xmlns="http://www.w3.org/2000/svg">
<g clip-path="url(#clip0_144_206)">
<path fill-rule="evenodd" clip-rule="evenodd" d="M0.5 2.57143C0.5 1.88944 0.770917 1.23539 1.25315 0.753154C1.73539 0.270917 2.38944 0 3.07143 0H15.9286C16.6106 0 17.2646 0.270917 17.7468 0.753154C18.2291 1.23539 18.5 1.88944 18.5 2.57143V15.4286C18.5 16.1106 18.2291 16.7646 17.7468 17.2468C17.2646 17.7291 16.6106 18 15.9286 18H3.07143C2.38944 18 1.73539 17.7291 1.25315 17.2468C0.770917 16.7646 0.5 16.1106 0.5 15.4286V2.57143ZM14.6429 3.85714H4.35714V14.1429L9.5 11.5714L14.6429 14.1429V3.85714Z" fill="#FD7427"/>
<path fill-rule="evenodd" clip-rule="evenodd" d="M0.5 2.57143C0.5 1.88944 0.770917 1.23539 1.25315 0.753154C1.73539 0.270917 2.38944 0 3.07143 0H15.9286C16.6106 0 17.2646 0.270917 17.7468 0.753154C18.2291 1.23539 18.5 1.88944 18.5 2.57143V15.4286C18.5 16.1106 18.2291 16.7646 17.7468 17.2468C17.2646 17.7291 16.6106 18 15.9286 18H3.07143C2.38944 18 1.73539 17.7291 1.25315 17.2468C0.770917 16.7646 0.5 16.1106 0.5 15.4286V2.57143ZM14.6429 3.85714H4.35714V14.1429L9.5 11.5714L14.6429 14.1429V3.85714Z" fill="url(#paint0_linear_144_206)"/>
</g>
<defs>
<linearGradient id="paint0_linear_144_206" x1="9.5" y1="0" x2="9.5" y2="18" gradientUnits="userSpaceOnUse">
<stop stop-color="#FFC163"/>
<stop offset="0.425" stop-color="#FD7427"/>
<stop offset="1" stop-color="#E54A5F"/>
</linearGradient>
<clipPath id="clip0_144_206">
<rect width="18" height="18" fill="white" transform="translate(0.5)"/>
</clipPath>
</defs>
</svg>
