<svg width="19" height="18" viewBox="0 0 19 18" fill="none" xmlns="http://www.w3.org/2000/svg">
<g clip-path="url(#clip0_144_210)">
<path d="M6.125 4.78125V1.40625M12.875 4.78125V1.40625M5.28125 8.15625H13.7188M3.59375 16.5938H15.4062C15.8538 16.5938 16.283 16.416 16.5995 16.0995C16.916 15.783 17.0938 15.3538 17.0938 14.9062V4.78125C17.0938 4.3337 16.916 3.90447 16.5995 3.58801C16.283 3.27154 15.8538 3.09375 15.4062 3.09375H3.59375C3.1462 3.09375 2.71697 3.27154 2.40051 3.58801C2.08404 3.90447 1.90625 4.3337 1.90625 4.78125V14.9062C1.90625 15.3538 2.08404 15.783 2.40051 16.0995C2.71697 16.416 3.1462 16.5938 3.59375 16.5938Z" stroke="#FD7427" stroke-width="2" stroke-linecap="round" stroke-linejoin="round"/>
</g>
<defs>
<clipPath id="clip0_144_210">
<rect width="18" height="18" fill="white" transform="translate(0.5)"/>
</clipPath>
</defs>
</svg>
