<svg width="61" height="61" viewBox="0 0 61 61" fill="none" xmlns="http://www.w3.org/2000/svg">
<path d="M37.6878 37.6878C35.7813 39.5938 33.1958 40.6645 30.5 40.6645C27.8042 40.6645 25.2187 39.5938 23.3122 37.6878M22.875 25.4167H22.9004H22.875ZM38.125 25.4167H38.1504H38.125ZM53.375 30.5C53.375 33.504 52.7833 36.4786 51.6337 39.2539C50.4842 42.0292 48.7992 44.5509 46.6751 46.6751C44.5509 48.7992 42.0292 50.4842 39.2539 51.6337C36.4786 52.7833 33.504 53.375 30.5 53.375C27.496 53.375 24.5214 52.7833 21.7461 51.6337C18.9708 50.4842 16.4491 48.7992 14.3249 46.6751C12.2008 44.5509 10.5158 42.0292 9.36626 39.2539C8.21668 36.4786 7.625 33.504 7.625 30.5C7.625 24.4332 10.035 18.6148 14.3249 14.3249C18.6148 10.035 24.4332 7.625 30.5 7.625C36.5668 7.625 42.3852 10.035 46.6751 14.3249C50.965 18.6148 53.375 24.4332 53.375 30.5Z" fill="white"/>
<path d="M37.6878 37.6878C35.7813 39.5938 33.1958 40.6645 30.5 40.6645C27.8042 40.6645 25.2187 39.5938 23.3122 37.6878M22.875 25.4167H22.9004M38.125 25.4167H38.1504M53.375 30.5C53.375 33.504 52.7833 36.4786 51.6337 39.2539C50.4842 42.0292 48.7992 44.5509 46.6751 46.6751C44.5509 48.7992 42.0292 50.4842 39.2539 51.6337C36.4786 52.7833 33.504 53.375 30.5 53.375C27.496 53.375 24.5214 52.7833 21.7461 51.6337C18.9708 50.4842 16.4491 48.7992 14.3249 46.6751C12.2008 44.5509 10.5158 42.0292 9.36626 39.2539C8.21668 36.4786 7.625 33.504 7.625 30.5C7.625 24.4332 10.035 18.6148 14.3249 14.3249C18.6148 10.035 24.4332 7.625 30.5 7.625C36.5668 7.625 42.3852 10.035 46.6751 14.3249C50.965 18.6148 53.375 24.4332 53.375 30.5Z" stroke="#FD7427" stroke-width="4" stroke-linecap="round" stroke-linejoin="round"/>
<path d="M37.6878 37.6878C35.7813 39.5938 33.1958 40.6645 30.5 40.6645C27.8042 40.6645 25.2187 39.5938 23.3122 37.6878M22.875 25.4167H22.9004M38.125 25.4167H38.1504M53.375 30.5C53.375 33.504 52.7833 36.4786 51.6337 39.2539C50.4842 42.0292 48.7992 44.5509 46.6751 46.6751C44.5509 48.7992 42.0292 50.4842 39.2539 51.6337C36.4786 52.7833 33.504 53.375 30.5 53.375C27.496 53.375 24.5214 52.7833 21.7461 51.6337C18.9708 50.4842 16.4491 48.7992 14.3249 46.6751C12.2008 44.5509 10.5158 42.0292 9.36626 39.2539C8.21668 36.4786 7.625 33.504 7.625 30.5C7.625 24.4332 10.035 18.6148 14.3249 14.3249C18.6148 10.035 24.4332 7.625 30.5 7.625C36.5668 7.625 42.3852 10.035 46.6751 14.3249C50.965 18.6148 53.375 24.4332 53.375 30.5Z" stroke="url(#paint0_linear_605_2376)" stroke-width="4" stroke-linecap="round" stroke-linejoin="round"/>
<defs>
<linearGradient id="paint0_linear_605_2376" x1="30.5" y1="7.625" x2="30.5" y2="53.375" gradientUnits="userSpaceOnUse">
<stop stop-color="#FFC163"/>
<stop offset="0.22" stop-color="#FD7427"/>
<stop offset="0.57" stop-color="#E54A5F"/>
<stop offset="1" stop-color="#2915C1"/>
</linearGradient>
</defs>
</svg>
