<svg width="21" height="18" viewBox="0 0 21 18" fill="none" xmlns="http://www.w3.org/2000/svg">
<path d="M11.76 0.947367C6.67003 0.814735 2.50003 4.68947 2.50003 9.47367H0.71003C0.260031 9.47367 0.0400305 9.98525 0.360031 10.2789L3.15003 12.9316C3.35003 13.121 3.66003 13.121 3.86003 12.9316L6.65003 10.2789C6.71913 10.2121 6.76582 10.1275 6.78421 10.0356C6.80261 9.94371 6.79187 9.84872 6.75338 9.76261C6.71488 9.67649 6.65033 9.6031 6.56788 9.55168C6.48542 9.50026 6.38874 9.47312 6.29003 9.47367H4.50003C4.50003 5.77894 7.68003 2.79473 11.6 2.8421C15.32 2.88947 18.45 5.85473 18.5 9.37893C18.55 13.0831 15.4 16.1052 11.5 16.1052C9.89003 16.1052 8.40003 15.5842 7.22003 14.7031C7.02849 14.5602 6.78818 14.4889 6.5448 14.5029C6.30141 14.5169 6.07194 14.6151 5.90003 14.7789C5.48003 15.1768 5.51003 15.8494 5.98003 16.1905C7.55123 17.3674 9.49703 18.0053 11.5 18C16.55 18 20.64 14.0494 20.5 9.22735C20.37 4.7842 16.45 1.07052 11.76 0.947367ZM11.25 5.6842C10.84 5.6842 10.5 6.0063 10.5 6.39472V9.88103C10.5 10.2126 10.69 10.5252 10.99 10.6958L14.11 12.4484C14.47 12.6473 14.93 12.5337 15.14 12.2021C15.35 11.861 15.23 11.4252 14.88 11.2263L12 9.6063V6.38525C12 6.0063 11.66 5.6842 11.25 5.6842Z" fill="#FD7427"/>
</svg>
