<svg width="121" height="44" viewBox="0 0 121 44" fill="none" xmlns="http://www.w3.org/2000/svg">
<path d="M45.12 18.2C44.2533 18.2 43.4333 18.1333 42.66 18C41.8867 17.8533 41.2267 17.6533 40.68 17.4V14.3C41.28 14.58 41.9467 14.8067 42.68 14.98C43.4133 15.1533 44.1 15.24 44.74 15.24C45.4067 15.24 45.9067 15.1867 46.24 15.08C46.5867 14.96 46.76 14.7 46.76 14.3C46.76 14.02 46.66 13.8 46.46 13.64C46.2733 13.48 45.9733 13.3333 45.56 13.2C45.16 13.0667 44.6333 12.9 43.98 12.7C43.1133 12.42 42.4267 12.1133 41.92 11.78C41.4133 11.4467 41.0467 11.04 40.82 10.56C40.6067 10.08 40.5 9.49333 40.5 8.8C40.5 7.53333 40.9467 6.57333 41.84 5.92C42.7467 5.25333 44.0867 4.92 45.86 4.92C46.5667 4.92 47.2933 4.98 48.04 5.1C48.8 5.22 49.4133 5.35333 49.88 5.5V8.62C49.2533 8.36667 48.6533 8.18667 48.08 8.08C47.5067 7.97333 46.9667 7.92 46.46 7.92C45.8733 7.92 45.3733 7.96667 44.96 8.06C44.5467 8.15333 44.34 8.39333 44.34 8.78C44.34 9.11333 44.5133 9.36 44.86 9.52C45.22 9.66667 45.8533 9.86 46.76 10.1C47.8133 10.38 48.6133 10.72 49.16 11.12C49.72 11.52 50.1 11.9867 50.3 12.52C50.5 13.04 50.6 13.6333 50.6 14.3C50.6 15.4733 50.1467 16.42 49.24 17.14C48.3333 17.8467 46.96 18.2 45.12 18.2Z" fill="#7076B6"/>
<path d="M51.9938 18V5.12H57.7538C59.0738 5.12 60.2004 5.34 61.1338 5.78C62.0671 6.20667 62.7804 6.9 63.2738 7.86C63.7671 8.80667 64.0138 10.0667 64.0138 11.64C64.0138 13.8533 63.4738 15.4667 62.3937 16.48C61.3138 17.4933 59.7671 18 57.7538 18H51.9938ZM55.7538 15.12H57.2738C57.9004 15.12 58.4271 15.0333 58.8538 14.86C59.2804 14.6733 59.6071 14.3333 59.8338 13.84C60.0604 13.3333 60.1738 12.6 60.1738 11.64C60.1738 10.68 60.0671 9.94 59.8538 9.42C59.6538 8.88667 59.3404 8.52 58.9138 8.32C58.4871 8.10667 57.9404 8 57.2738 8H55.7538V15.12Z" fill="#F9A224"/>
<path d="M14.3787 12.5355C15.5503 11.364 17.4497 11.364 18.6213 12.5355L22.4645 16.3787C24.3544 18.2686 23.0159 21.5 20.3431 21.5H12.6569C9.98414 21.5 8.64564 18.2686 10.5355 16.3787L14.3787 12.5355Z" stroke="#FEC023" stroke-width="2"/>
<circle cx="16.6873" cy="12.7875" r="1.8875" fill="#FAFAFA"/>
<circle cx="16.6873" cy="12.7875" r="1.8875" stroke="#7076B6" stroke-width="2"/>
<circle cx="16.6873" cy="12.7875" r="1.8875" stroke="url(#paint0_linear_144_197)" stroke-width="2"/>
<rect x="3.2373" y="18.575" width="25.925" height="9.425" rx="3" fill="#FFF6EE"/>
<rect x="3.2373" y="18.575" width="25.925" height="9.425" rx="3" fill="url(#paint1_linear_144_197)" fill-opacity="0.35"/>
<rect x="3.2373" y="18.575" width="25.925" height="9.425" rx="3" stroke="#FD7427" stroke-width="2"/>
<rect x="3.2373" y="18.575" width="25.925" height="9.425" rx="3" stroke="url(#paint2_linear_144_197)" stroke-width="2"/>
<path d="M40.9 36V23.12H47.98C49.2867 23.12 50.28 23.4267 50.96 24.04C51.64 24.6533 51.98 25.5333 51.98 26.68C51.98 27.3467 51.8533 27.9067 51.6 28.36C51.36 28.8133 51.04 29.1733 50.64 29.44C51.1867 29.6533 51.62 29.9667 51.94 30.38C52.2733 30.78 52.44 31.38 52.44 32.18C52.44 33.3933 52.0667 34.3333 51.32 35C50.5733 35.6667 49.5133 36 48.14 36H40.9ZM44.52 28.26H46.96C47.88 28.26 48.34 27.8467 48.34 27.02C48.34 26.6067 48.2267 26.2933 48 26.08C47.7867 25.8667 47.4067 25.76 46.86 25.76H44.52V28.26ZM44.52 33.38H47.12C47.6267 33.38 48 33.2733 48.24 33.06C48.48 32.8467 48.6 32.4933 48.6 32C48.6 31.5867 48.48 31.2733 48.24 31.06C48 30.8467 47.6 30.74 47.04 30.74H44.52V33.38ZM58.9892 36.2C57.0959 36.2 55.6959 35.78 54.7892 34.94C53.8959 34.1 53.4492 32.8733 53.4492 31.26C53.4492 29.66 53.9026 28.44 54.8092 27.6C55.7159 26.7467 57.1092 26.32 58.9892 26.32C60.8826 26.32 62.2826 26.7467 63.1892 27.6C64.1092 28.44 64.5692 29.66 64.5692 31.26C64.5692 32.8733 64.1159 34.1 63.2092 34.94C62.3026 35.78 60.8959 36.2 58.9892 36.2ZM58.9892 33.46C59.6026 33.46 60.0426 33.2867 60.3092 32.94C60.5892 32.5933 60.7292 32.0333 60.7292 31.26C60.7292 30.5 60.5892 29.9467 60.3092 29.6C60.0426 29.24 59.6026 29.06 58.9892 29.06C58.3892 29.06 57.9559 29.24 57.6892 29.6C57.4226 29.9467 57.2892 30.5 57.2892 31.26C57.2892 32.0333 57.4226 32.5933 57.6892 32.94C57.9559 33.2867 58.3892 33.46 58.9892 33.46ZM71.1181 36.2C69.2248 36.2 67.8248 35.78 66.9181 34.94C66.0248 34.1 65.5781 32.8733 65.5781 31.26C65.5781 29.66 66.0315 28.44 66.9381 27.6C67.8448 26.7467 69.2381 26.32 71.1181 26.32C73.0115 26.32 74.4115 26.7467 75.3181 27.6C76.2381 28.44 76.6981 29.66 76.6981 31.26C76.6981 32.8733 76.2448 34.1 75.3381 34.94C74.4315 35.78 73.0248 36.2 71.1181 36.2ZM71.1181 33.46C71.7315 33.46 72.1715 33.2867 72.4381 32.94C72.7181 32.5933 72.8581 32.0333 72.8581 31.26C72.8581 30.5 72.7181 29.9467 72.4381 29.6C72.1715 29.24 71.7315 29.06 71.1181 29.06C70.5181 29.06 70.0848 29.24 69.8181 29.6C69.5515 29.9467 69.4181 30.5 69.4181 31.26C69.4181 32.0333 69.5515 32.5933 69.8181 32.94C70.0848 33.2867 70.5181 33.46 71.1181 33.46ZM78.107 36V22.52H81.867V29.18L84.507 26.52H88.767L84.987 30.52L88.987 36H84.987L82.647 32.48L81.867 33.26V36H78.107ZM89.8608 25.26V22.54H93.9208V25.26H89.8608ZM90.1608 36V29.26H88.7808L89.1008 26.52H93.9208V36H90.1608ZM95.7242 36V26.52H99.2442L99.3442 27.24C99.7042 27 100.178 26.7867 100.764 26.6C101.364 26.4133 102.004 26.32 102.684 26.32C103.871 26.32 104.738 26.6133 105.284 27.2C105.831 27.7867 106.104 28.6933 106.104 29.92V36H102.344V30.3C102.344 29.8733 102.251 29.5667 102.064 29.38C101.878 29.1933 101.551 29.1 101.084 29.1C100.804 29.1 100.511 29.1667 100.204 29.3C99.9109 29.4333 99.6709 29.5933 99.4842 29.78V36H95.7242ZM111.955 39.52C111.488 39.52 110.981 39.5 110.435 39.46C109.888 39.4333 109.368 39.38 108.875 39.3C108.395 39.22 107.995 39.1267 107.675 39.02V36.62C108.035 36.74 108.448 36.84 108.915 36.92C109.395 37 109.881 37.06 110.375 37.1C110.868 37.14 111.321 37.16 111.735 37.16C112.441 37.16 112.995 37.12 113.395 37.04C113.808 36.9733 114.015 36.8467 114.015 36.66C114.015 36.5 113.948 36.3933 113.815 36.34C113.681 36.3 113.428 36.28 113.055 36.28H110.555C109.581 36.28 108.828 36.1267 108.295 35.82C107.775 35.5 107.515 35.0267 107.515 34.4C107.515 33.52 108.001 32.9067 108.975 32.56C108.428 32.28 108.028 31.9267 107.775 31.5C107.521 31.0733 107.395 30.5333 107.395 29.88C107.395 28.6533 107.808 27.7533 108.635 27.18C109.475 26.6067 110.681 26.32 112.255 26.32C112.588 26.32 112.961 26.3467 113.375 26.4C113.788 26.44 114.088 26.48 114.275 26.52H117.995L117.915 28.8H116.655C116.895 29.1067 117.015 29.48 117.015 29.92C117.015 30.8933 116.728 31.6667 116.155 32.24C115.595 32.8 114.708 33.08 113.495 33.08C113.321 33.08 113.135 33.0733 112.935 33.06C112.735 33.0333 112.548 33.0133 112.375 33C112.081 33.0267 111.828 33.08 111.615 33.16C111.401 33.24 111.295 33.3733 111.295 33.56C111.295 33.6933 111.355 33.7867 111.475 33.84C111.595 33.88 111.761 33.9 111.975 33.9H114.155C115.128 33.9 115.895 34.1267 116.455 34.58C117.015 35.0333 117.295 35.7 117.295 36.58C117.295 37.5133 116.861 38.2333 115.995 38.74C115.128 39.26 113.781 39.52 111.955 39.52ZM112.275 31.02C112.861 31.02 113.268 30.92 113.495 30.72C113.721 30.52 113.835 30.1867 113.835 29.72C113.835 29.2533 113.721 28.9133 113.495 28.7C113.268 28.4867 112.861 28.38 112.275 28.38C111.728 28.38 111.328 28.4867 111.075 28.7C110.835 28.9 110.715 29.24 110.715 29.72C110.715 30.1733 110.828 30.5067 111.055 30.72C111.295 30.92 111.701 31.02 112.275 31.02Z" fill="#FD7427"/>
<path d="M40.9 36V23.12H47.98C49.2867 23.12 50.28 23.4267 50.96 24.04C51.64 24.6533 51.98 25.5333 51.98 26.68C51.98 27.3467 51.8533 27.9067 51.6 28.36C51.36 28.8133 51.04 29.1733 50.64 29.44C51.1867 29.6533 51.62 29.9667 51.94 30.38C52.2733 30.78 52.44 31.38 52.44 32.18C52.44 33.3933 52.0667 34.3333 51.32 35C50.5733 35.6667 49.5133 36 48.14 36H40.9ZM44.52 28.26H46.96C47.88 28.26 48.34 27.8467 48.34 27.02C48.34 26.6067 48.2267 26.2933 48 26.08C47.7867 25.8667 47.4067 25.76 46.86 25.76H44.52V28.26ZM44.52 33.38H47.12C47.6267 33.38 48 33.2733 48.24 33.06C48.48 32.8467 48.6 32.4933 48.6 32C48.6 31.5867 48.48 31.2733 48.24 31.06C48 30.8467 47.6 30.74 47.04 30.74H44.52V33.38ZM58.9892 36.2C57.0959 36.2 55.6959 35.78 54.7892 34.94C53.8959 34.1 53.4492 32.8733 53.4492 31.26C53.4492 29.66 53.9026 28.44 54.8092 27.6C55.7159 26.7467 57.1092 26.32 58.9892 26.32C60.8826 26.32 62.2826 26.7467 63.1892 27.6C64.1092 28.44 64.5692 29.66 64.5692 31.26C64.5692 32.8733 64.1159 34.1 63.2092 34.94C62.3026 35.78 60.8959 36.2 58.9892 36.2ZM58.9892 33.46C59.6026 33.46 60.0426 33.2867 60.3092 32.94C60.5892 32.5933 60.7292 32.0333 60.7292 31.26C60.7292 30.5 60.5892 29.9467 60.3092 29.6C60.0426 29.24 59.6026 29.06 58.9892 29.06C58.3892 29.06 57.9559 29.24 57.6892 29.6C57.4226 29.9467 57.2892 30.5 57.2892 31.26C57.2892 32.0333 57.4226 32.5933 57.6892 32.94C57.9559 33.2867 58.3892 33.46 58.9892 33.46ZM71.1181 36.2C69.2248 36.2 67.8248 35.78 66.9181 34.94C66.0248 34.1 65.5781 32.8733 65.5781 31.26C65.5781 29.66 66.0315 28.44 66.9381 27.6C67.8448 26.7467 69.2381 26.32 71.1181 26.32C73.0115 26.32 74.4115 26.7467 75.3181 27.6C76.2381 28.44 76.6981 29.66 76.6981 31.26C76.6981 32.8733 76.2448 34.1 75.3381 34.94C74.4315 35.78 73.0248 36.2 71.1181 36.2ZM71.1181 33.46C71.7315 33.46 72.1715 33.2867 72.4381 32.94C72.7181 32.5933 72.8581 32.0333 72.8581 31.26C72.8581 30.5 72.7181 29.9467 72.4381 29.6C72.1715 29.24 71.7315 29.06 71.1181 29.06C70.5181 29.06 70.0848 29.24 69.8181 29.6C69.5515 29.9467 69.4181 30.5 69.4181 31.26C69.4181 32.0333 69.5515 32.5933 69.8181 32.94C70.0848 33.2867 70.5181 33.46 71.1181 33.46ZM78.107 36V22.52H81.867V29.18L84.507 26.52H88.767L84.987 30.52L88.987 36H84.987L82.647 32.48L81.867 33.26V36H78.107ZM89.8608 25.26V22.54H93.9208V25.26H89.8608ZM90.1608 36V29.26H88.7808L89.1008 26.52H93.9208V36H90.1608ZM95.7242 36V26.52H99.2442L99.3442 27.24C99.7042 27 100.178 26.7867 100.764 26.6C101.364 26.4133 102.004 26.32 102.684 26.32C103.871 26.32 104.738 26.6133 105.284 27.2C105.831 27.7867 106.104 28.6933 106.104 29.92V36H102.344V30.3C102.344 29.8733 102.251 29.5667 102.064 29.38C101.878 29.1933 101.551 29.1 101.084 29.1C100.804 29.1 100.511 29.1667 100.204 29.3C99.9109 29.4333 99.6709 29.5933 99.4842 29.78V36H95.7242ZM111.955 39.52C111.488 39.52 110.981 39.5 110.435 39.46C109.888 39.4333 109.368 39.38 108.875 39.3C108.395 39.22 107.995 39.1267 107.675 39.02V36.62C108.035 36.74 108.448 36.84 108.915 36.92C109.395 37 109.881 37.06 110.375 37.1C110.868 37.14 111.321 37.16 111.735 37.16C112.441 37.16 112.995 37.12 113.395 37.04C113.808 36.9733 114.015 36.8467 114.015 36.66C114.015 36.5 113.948 36.3933 113.815 36.34C113.681 36.3 113.428 36.28 113.055 36.28H110.555C109.581 36.28 108.828 36.1267 108.295 35.82C107.775 35.5 107.515 35.0267 107.515 34.4C107.515 33.52 108.001 32.9067 108.975 32.56C108.428 32.28 108.028 31.9267 107.775 31.5C107.521 31.0733 107.395 30.5333 107.395 29.88C107.395 28.6533 107.808 27.7533 108.635 27.18C109.475 26.6067 110.681 26.32 112.255 26.32C112.588 26.32 112.961 26.3467 113.375 26.4C113.788 26.44 114.088 26.48 114.275 26.52H117.995L117.915 28.8H116.655C116.895 29.1067 117.015 29.48 117.015 29.92C117.015 30.8933 116.728 31.6667 116.155 32.24C115.595 32.8 114.708 33.08 113.495 33.08C113.321 33.08 113.135 33.0733 112.935 33.06C112.735 33.0333 112.548 33.0133 112.375 33C112.081 33.0267 111.828 33.08 111.615 33.16C111.401 33.24 111.295 33.3733 111.295 33.56C111.295 33.6933 111.355 33.7867 111.475 33.84C111.595 33.88 111.761 33.9 111.975 33.9H114.155C115.128 33.9 115.895 34.1267 116.455 34.58C117.015 35.0333 117.295 35.7 117.295 36.58C117.295 37.5133 116.861 38.2333 115.995 38.74C115.128 39.26 113.781 39.52 111.955 39.52ZM112.275 31.02C112.861 31.02 113.268 30.92 113.495 30.72C113.721 30.52 113.835 30.1867 113.835 29.72C113.835 29.2533 113.721 28.9133 113.495 28.7C113.268 28.4867 112.861 28.38 112.275 28.38C111.728 28.38 111.328 28.4867 111.075 28.7C110.835 28.9 110.715 29.24 110.715 29.72C110.715 30.1733 110.828 30.5067 111.055 30.72C111.295 30.92 111.701 31.02 112.275 31.02Z" fill="url(#paint3_linear_144_197)"/>
<defs>
<linearGradient id="paint0_linear_144_197" x1="16.6873" y1="9.89999" x2="16.6873" y2="15.675" gradientUnits="userSpaceOnUse">
<stop offset="0.395" stop-color="#56538C" stop-opacity="0"/>
<stop offset="1" stop-color="#56538C"/>
</linearGradient>
<linearGradient id="paint1_linear_144_197" x1="16.1998" y1="19.575" x2="16.1998" y2="27" gradientUnits="userSpaceOnUse">
<stop stop-color="white" stop-opacity="0"/>
<stop offset="1" stop-color="#FFC895"/>
</linearGradient>
<linearGradient id="paint2_linear_144_197" x1="16.1998" y1="19.575" x2="16.1998" y2="27" gradientUnits="userSpaceOnUse">
<stop stop-color="#FFC163"/>
<stop offset="0.425" stop-color="#FD7427"/>
<stop offset="1" stop-color="#E54A5F"/>
</linearGradient>
<linearGradient id="paint3_linear_144_197" x1="40" y1="29" x2="119" y2="29" gradientUnits="userSpaceOnUse">
<stop stop-color="#FFC163"/>
<stop offset="0.425" stop-color="#FD7427"/>
<stop offset="1" stop-color="#E54A5F"/>
</linearGradient>
</defs>
</svg>
