<svg width="320" height="94" viewBox="0 0 320 94" fill="none" xmlns="http://www.w3.org/2000/svg">
<line y1="-2" x2="57.3955" y2="-2" transform="matrix(0.830153 -0.557535 0.830153 0.557535 109.269 38)" stroke="#FD7427" stroke-width="4"/>
<line y1="-2" x2="57.3955" y2="-2" transform="matrix(0.830153 -0.557535 0.830153 0.557535 109.269 38)" stroke="url(#paint0_linear_552_3533)" stroke-width="4"/>
<line y1="-2" x2="57.3955" y2="-2" transform="matrix(-0.830153 -0.557535 -0.830153 0.557535 204.563 38)" stroke="#FD7427" stroke-width="4"/>
<line y1="-2" x2="57.3955" y2="-2" transform="matrix(-0.830153 -0.557535 -0.830153 0.557535 204.563 38)" stroke="url(#paint1_linear_552_3533)" stroke-width="4"/>
<circle cx="157.269" cy="9" r="9" fill="#D34B61"/>
<rect x="6.27856" y="21.4541" width="314.25" height="47" rx="12" transform="rotate(4 6.27856 21.4541)" fill="#FD7427"/>
<rect x="6.27856" y="21.4541" width="314.25" height="47" rx="12" transform="rotate(4 6.27856 21.4541)" fill="url(#paint2_linear_552_3533)"/>
<rect x="2.26892" y="29.9999" width="308" height="51" rx="14" fill="white"/>
<rect x="2.26892" y="29.9999" width="308" height="51" rx="14" stroke="#FD7427" stroke-width="4"/>
<rect x="2.26892" y="29.9999" width="308" height="51" rx="14" stroke="url(#paint3_linear_552_3533)" stroke-width="4"/>
<path d="M23.957 73.6719C20.597 73.6719 17.733 72.8719 15.365 71.2719C13.029 69.6399 11.365 67.3199 10.373 64.3119C10.341 64.2479 10.325 64.1519 10.325 64.0239C10.325 63.6719 10.517 63.4479 10.901 63.3519L17.573 61.7199L17.813 61.6719C18.133 61.6719 18.373 61.8479 18.533 62.1999C19.045 63.4479 19.749 64.3599 20.645 64.9359C21.573 65.5119 22.757 65.7999 24.197 65.7999C25.381 65.7999 26.325 65.6079 27.029 65.2239C27.733 64.8079 28.085 64.1999 28.085 63.3999C28.085 62.5679 27.733 61.8959 27.029 61.3839C26.357 60.8399 25.221 60.2799 23.621 59.7039L19.973 58.4079C17.189 57.4479 15.029 56.0719 13.493 54.2799C11.957 52.4879 11.189 50.3279 11.189 47.7999C11.189 45.7519 11.749 43.9119 12.869 42.2799C13.989 40.6479 15.509 39.3839 17.429 38.4879C19.349 37.5599 21.477 37.0959 23.813 37.0959C26.853 37.0959 29.461 37.8159 31.637 39.2559C33.845 40.6959 35.429 42.8719 36.389 45.7839C36.421 45.8479 36.437 45.9599 36.437 46.1199C36.437 46.4399 36.261 46.6479 35.909 46.7439L28.901 48.6159C28.837 48.6479 28.741 48.6639 28.613 48.6639C28.325 48.6639 28.101 48.4879 27.941 48.1359C27.429 46.9519 26.821 46.1359 26.117 45.6879C25.445 45.2079 24.629 44.9679 23.669 44.9679C22.677 44.9679 21.861 45.1759 21.221 45.5919C20.613 46.0079 20.309 46.5839 20.309 47.3199C20.309 48.0559 20.677 48.7119 21.413 49.2879C22.149 49.8319 23.413 50.4079 25.205 51.0159L27.845 51.8799C31.045 52.9679 33.397 54.3759 34.901 56.1039C36.405 57.8319 37.157 60.1199 37.157 62.9679C37.157 65.0159 36.597 66.8559 35.477 68.4879C34.357 70.1199 32.789 71.3999 30.773 72.3279C28.789 73.2239 26.517 73.6719 23.957 73.6719Z" fill="#7076B6"/>
<path d="M40.6344 72.9999C40.1224 72.9999 39.8664 72.7439 39.8664 72.2319V38.5359C39.8664 38.0239 40.1224 37.7679 40.6344 37.7679H53.6424C59.3704 37.7679 63.7704 39.2879 66.8424 42.3279C69.9464 45.3359 71.4984 49.6879 71.4984 55.3839C71.4984 61.0479 69.9464 65.3999 66.8424 68.4399C63.7384 71.4799 59.3384 72.9999 53.6424 72.9999H40.6344ZM48.6984 46.0239V64.7439H52.7784C55.9144 64.7439 58.2984 63.9599 59.9304 62.3919C61.5624 60.8239 62.3784 58.4879 62.3784 55.3839C62.3784 52.2799 61.5624 49.9439 59.9304 48.3759C58.2984 46.8079 55.9144 46.0239 52.7784 46.0239H48.6984Z" fill="#F9A224"/>
<path d="M76.2144 72.9999C75.7024 72.9999 75.4464 72.7439 75.4464 72.2319V38.5359C75.4464 38.0239 75.7024 37.7679 76.2144 37.7679H89.2224C93.5104 37.7679 96.6624 38.5839 98.6784 40.2159C100.694 41.8479 101.702 44.1039 101.702 46.9839C101.702 48.6799 101.27 50.1839 100.406 51.4959C99.5744 52.7759 98.3584 53.7519 96.7584 54.4239C98.9664 55.0319 100.63 56.0719 101.75 57.5439C102.902 58.9839 103.478 60.6959 103.478 62.6799C103.478 66.0399 102.31 68.5999 99.9744 70.3599C97.6704 72.1199 94.0384 72.9999 89.0784 72.9999H76.2144ZM84.1344 44.9679V51.7839H88.9824C90.1984 51.7839 91.1584 51.4959 91.8624 50.9199C92.5984 50.3439 92.9664 49.4959 92.9664 48.3759C92.9664 47.2559 92.5984 46.4079 91.8624 45.8319C91.1584 45.2559 90.1984 44.9679 88.9824 44.9679H84.1344ZM84.1344 58.3599V65.7999H89.6064C91.0784 65.7999 92.2304 65.4799 93.0624 64.8399C93.8944 64.1999 94.3104 63.2719 94.3104 62.0559C94.3104 60.8399 93.8944 59.9279 93.0624 59.3199C92.2304 58.6799 91.0784 58.3599 89.6064 58.3599H84.1344ZM123.335 73.6719C119.879 73.6719 116.759 72.9039 113.975 71.3679C111.223 69.8319 109.063 67.6879 107.495 64.9359C105.927 62.1519 105.143 58.9679 105.143 55.3839C105.143 51.7999 105.927 48.6319 107.495 45.8799C109.063 43.0959 111.223 40.9359 113.975 39.3999C116.759 37.8639 119.879 37.0959 123.335 37.0959C126.791 37.0959 129.895 37.8639 132.647 39.3999C135.431 40.9359 137.607 43.0959 139.175 45.8799C140.743 48.6319 141.527 51.7999 141.527 55.3839C141.527 58.9679 140.743 62.1519 139.175 64.9359C137.607 67.6879 135.431 69.8319 132.647 71.3679C129.895 72.9039 126.791 73.6719 123.335 73.6719ZM123.335 64.9839C125.095 64.9839 126.647 64.5839 127.991 63.7839C129.335 62.9519 130.375 61.8159 131.111 60.3759C131.879 58.9039 132.263 57.2399 132.263 55.3839C132.263 53.5279 131.879 51.8799 131.111 50.4399C130.375 48.9679 129.335 47.8319 127.991 47.0319C126.647 46.1999 125.095 45.7839 123.335 45.7839C121.575 45.7839 120.023 46.1999 118.679 47.0319C117.335 47.8319 116.279 48.9679 115.511 50.4399C114.775 51.8799 114.407 53.5279 114.407 55.3839C114.407 57.2399 114.775 58.9039 115.511 60.3759C116.279 61.8159 117.335 62.9519 118.679 63.7839C120.023 64.5839 121.575 64.9839 123.335 64.9839ZM162.665 73.6719C159.209 73.6719 156.089 72.9039 153.305 71.3679C150.553 69.8319 148.393 67.6879 146.825 64.9359C145.257 62.1519 144.473 58.9679 144.473 55.3839C144.473 51.7999 145.257 48.6319 146.825 45.8799C148.393 43.0959 150.553 40.9359 153.305 39.3999C156.089 37.8639 159.209 37.0959 162.665 37.0959C166.121 37.0959 169.225 37.8639 171.977 39.3999C174.761 40.9359 176.937 43.0959 178.505 45.8799C180.073 48.6319 180.857 51.7999 180.857 55.3839C180.857 58.9679 180.073 62.1519 178.505 64.9359C176.937 67.6879 174.761 69.8319 171.977 71.3679C169.225 72.9039 166.121 73.6719 162.665 73.6719ZM162.665 64.9839C164.425 64.9839 165.977 64.5839 167.321 63.7839C168.665 62.9519 169.705 61.8159 170.441 60.3759C171.209 58.9039 171.593 57.2399 171.593 55.3839C171.593 53.5279 171.209 51.8799 170.441 50.4399C169.705 48.9679 168.665 47.8319 167.321 47.0319C165.977 46.1999 164.425 45.7839 162.665 45.7839C160.905 45.7839 159.353 46.1999 158.009 47.0319C156.665 47.8319 155.609 48.9679 154.841 50.4399C154.105 51.8799 153.737 53.5279 153.737 55.3839C153.737 57.2399 154.105 58.9039 154.841 60.3759C155.609 61.8159 156.665 62.9519 158.009 63.7839C159.353 64.5839 160.905 64.9839 162.665 64.9839ZM185.579 72.9999C185.067 72.9999 184.811 72.7439 184.811 72.2319V38.5359C184.811 38.0239 185.067 37.7679 185.579 37.7679H193.019C193.531 37.7679 193.787 38.0239 193.787 38.5359V52.1679L205.211 38.1999C205.435 37.9119 205.739 37.7679 206.123 37.7679H214.619C214.811 37.7679 214.955 37.8159 215.051 37.9119C215.179 37.9759 215.243 38.0719 215.243 38.1999C215.243 38.3919 215.179 38.5519 215.051 38.6799L204.347 51.0159L216.395 72.0879C216.491 72.2159 216.539 72.3599 216.539 72.5199C216.539 72.8399 216.315 72.9999 215.867 72.9999H207.275C206.891 72.9999 206.603 72.8239 206.411 72.4719L198.299 57.9279L193.787 63.1119V72.2319C193.787 72.7439 193.531 72.9999 193.019 72.9999H185.579ZM219.753 72.9999C219.241 72.9999 218.985 72.7439 218.985 72.2319V38.5359C218.985 38.0239 219.241 37.7679 219.753 37.7679H227.193C227.705 37.7679 227.961 38.0239 227.961 38.5359V72.2319C227.961 72.7439 227.705 72.9999 227.193 72.9999H219.753ZM233.63 72.9999C233.118 72.9999 232.862 72.7439 232.862 72.2319V38.5359C232.862 38.0239 233.118 37.7679 233.63 37.7679H241.406C241.758 37.7679 242.062 37.9439 242.318 38.2959L254.894 59.2239V38.5359C254.894 38.0239 255.15 37.7679 255.662 37.7679H262.718C263.23 37.7679 263.486 38.0239 263.486 38.5359V72.2319C263.486 72.7439 263.23 72.9999 262.718 72.9999H254.99C254.574 72.9999 254.27 72.8239 254.078 72.4719L241.454 51.4479V72.2319C241.454 72.7439 241.198 72.9999 240.686 72.9999H233.63ZM285.195 73.6719C281.675 73.6719 278.571 72.9039 275.883 71.3679C273.195 69.8319 271.099 67.6879 269.595 64.9359C268.123 62.1519 267.387 58.9679 267.387 55.3839C267.387 51.8319 268.155 48.6639 269.691 45.8799C271.259 43.0959 273.403 40.9359 276.123 39.3999C278.875 37.8639 281.947 37.0959 285.339 37.0959C289.179 37.0959 292.443 37.9279 295.131 39.5919C297.851 41.2559 299.803 43.6239 300.987 46.6959C301.051 46.8879 301.083 46.9999 301.083 47.0319C301.083 47.1919 301.019 47.3359 300.891 47.4639C300.795 47.5599 300.667 47.6239 300.507 47.6559L293.163 49.6719L292.923 49.7199C292.667 49.7199 292.427 49.5599 292.203 49.2399C291.499 48.1199 290.555 47.2559 289.371 46.6479C288.219 46.0399 286.923 45.7359 285.483 45.7359C282.763 45.7359 280.603 46.5999 279.003 48.3279C277.435 50.0239 276.651 52.3919 276.651 55.4319C276.651 58.4399 277.451 60.8079 279.051 62.5359C280.651 64.2319 282.795 65.0799 285.483 65.0799C287.563 65.0799 289.291 64.6159 290.667 63.6879C292.043 62.7599 292.843 61.4639 293.067 59.7999H286.299C285.787 59.7999 285.531 59.5439 285.531 59.0319V53.8959C285.531 53.3839 285.787 53.1279 286.299 53.1279H301.323C301.547 53.1279 301.723 53.2079 301.851 53.3679C302.011 53.4959 302.091 53.6719 302.091 53.8959V58.0239C302.091 60.9999 301.435 63.6719 300.123 66.0399C298.811 68.4079 296.875 70.2799 294.315 71.6559C291.787 72.9999 288.747 73.6719 285.195 73.6719Z" fill="#FD7427"/>
<path d="M76.2144 72.9999C75.7024 72.9999 75.4464 72.7439 75.4464 72.2319V38.5359C75.4464 38.0239 75.7024 37.7679 76.2144 37.7679H89.2224C93.5104 37.7679 96.6624 38.5839 98.6784 40.2159C100.694 41.8479 101.702 44.1039 101.702 46.9839C101.702 48.6799 101.27 50.1839 100.406 51.4959C99.5744 52.7759 98.3584 53.7519 96.7584 54.4239C98.9664 55.0319 100.63 56.0719 101.75 57.5439C102.902 58.9839 103.478 60.6959 103.478 62.6799C103.478 66.0399 102.31 68.5999 99.9744 70.3599C97.6704 72.1199 94.0384 72.9999 89.0784 72.9999H76.2144ZM84.1344 44.9679V51.7839H88.9824C90.1984 51.7839 91.1584 51.4959 91.8624 50.9199C92.5984 50.3439 92.9664 49.4959 92.9664 48.3759C92.9664 47.2559 92.5984 46.4079 91.8624 45.8319C91.1584 45.2559 90.1984 44.9679 88.9824 44.9679H84.1344ZM84.1344 58.3599V65.7999H89.6064C91.0784 65.7999 92.2304 65.4799 93.0624 64.8399C93.8944 64.1999 94.3104 63.2719 94.3104 62.0559C94.3104 60.8399 93.8944 59.9279 93.0624 59.3199C92.2304 58.6799 91.0784 58.3599 89.6064 58.3599H84.1344ZM123.335 73.6719C119.879 73.6719 116.759 72.9039 113.975 71.3679C111.223 69.8319 109.063 67.6879 107.495 64.9359C105.927 62.1519 105.143 58.9679 105.143 55.3839C105.143 51.7999 105.927 48.6319 107.495 45.8799C109.063 43.0959 111.223 40.9359 113.975 39.3999C116.759 37.8639 119.879 37.0959 123.335 37.0959C126.791 37.0959 129.895 37.8639 132.647 39.3999C135.431 40.9359 137.607 43.0959 139.175 45.8799C140.743 48.6319 141.527 51.7999 141.527 55.3839C141.527 58.9679 140.743 62.1519 139.175 64.9359C137.607 67.6879 135.431 69.8319 132.647 71.3679C129.895 72.9039 126.791 73.6719 123.335 73.6719ZM123.335 64.9839C125.095 64.9839 126.647 64.5839 127.991 63.7839C129.335 62.9519 130.375 61.8159 131.111 60.3759C131.879 58.9039 132.263 57.2399 132.263 55.3839C132.263 53.5279 131.879 51.8799 131.111 50.4399C130.375 48.9679 129.335 47.8319 127.991 47.0319C126.647 46.1999 125.095 45.7839 123.335 45.7839C121.575 45.7839 120.023 46.1999 118.679 47.0319C117.335 47.8319 116.279 48.9679 115.511 50.4399C114.775 51.8799 114.407 53.5279 114.407 55.3839C114.407 57.2399 114.775 58.9039 115.511 60.3759C116.279 61.8159 117.335 62.9519 118.679 63.7839C120.023 64.5839 121.575 64.9839 123.335 64.9839ZM162.665 73.6719C159.209 73.6719 156.089 72.9039 153.305 71.3679C150.553 69.8319 148.393 67.6879 146.825 64.9359C145.257 62.1519 144.473 58.9679 144.473 55.3839C144.473 51.7999 145.257 48.6319 146.825 45.8799C148.393 43.0959 150.553 40.9359 153.305 39.3999C156.089 37.8639 159.209 37.0959 162.665 37.0959C166.121 37.0959 169.225 37.8639 171.977 39.3999C174.761 40.9359 176.937 43.0959 178.505 45.8799C180.073 48.6319 180.857 51.7999 180.857 55.3839C180.857 58.9679 180.073 62.1519 178.505 64.9359C176.937 67.6879 174.761 69.8319 171.977 71.3679C169.225 72.9039 166.121 73.6719 162.665 73.6719ZM162.665 64.9839C164.425 64.9839 165.977 64.5839 167.321 63.7839C168.665 62.9519 169.705 61.8159 170.441 60.3759C171.209 58.9039 171.593 57.2399 171.593 55.3839C171.593 53.5279 171.209 51.8799 170.441 50.4399C169.705 48.9679 168.665 47.8319 167.321 47.0319C165.977 46.1999 164.425 45.7839 162.665 45.7839C160.905 45.7839 159.353 46.1999 158.009 47.0319C156.665 47.8319 155.609 48.9679 154.841 50.4399C154.105 51.8799 153.737 53.5279 153.737 55.3839C153.737 57.2399 154.105 58.9039 154.841 60.3759C155.609 61.8159 156.665 62.9519 158.009 63.7839C159.353 64.5839 160.905 64.9839 162.665 64.9839ZM185.579 72.9999C185.067 72.9999 184.811 72.7439 184.811 72.2319V38.5359C184.811 38.0239 185.067 37.7679 185.579 37.7679H193.019C193.531 37.7679 193.787 38.0239 193.787 38.5359V52.1679L205.211 38.1999C205.435 37.9119 205.739 37.7679 206.123 37.7679H214.619C214.811 37.7679 214.955 37.8159 215.051 37.9119C215.179 37.9759 215.243 38.0719 215.243 38.1999C215.243 38.3919 215.179 38.5519 215.051 38.6799L204.347 51.0159L216.395 72.0879C216.491 72.2159 216.539 72.3599 216.539 72.5199C216.539 72.8399 216.315 72.9999 215.867 72.9999H207.275C206.891 72.9999 206.603 72.8239 206.411 72.4719L198.299 57.9279L193.787 63.1119V72.2319C193.787 72.7439 193.531 72.9999 193.019 72.9999H185.579ZM219.753 72.9999C219.241 72.9999 218.985 72.7439 218.985 72.2319V38.5359C218.985 38.0239 219.241 37.7679 219.753 37.7679H227.193C227.705 37.7679 227.961 38.0239 227.961 38.5359V72.2319C227.961 72.7439 227.705 72.9999 227.193 72.9999H219.753ZM233.63 72.9999C233.118 72.9999 232.862 72.7439 232.862 72.2319V38.5359C232.862 38.0239 233.118 37.7679 233.63 37.7679H241.406C241.758 37.7679 242.062 37.9439 242.318 38.2959L254.894 59.2239V38.5359C254.894 38.0239 255.15 37.7679 255.662 37.7679H262.718C263.23 37.7679 263.486 38.0239 263.486 38.5359V72.2319C263.486 72.7439 263.23 72.9999 262.718 72.9999H254.99C254.574 72.9999 254.27 72.8239 254.078 72.4719L241.454 51.4479V72.2319C241.454 72.7439 241.198 72.9999 240.686 72.9999H233.63ZM285.195 73.6719C281.675 73.6719 278.571 72.9039 275.883 71.3679C273.195 69.8319 271.099 67.6879 269.595 64.9359C268.123 62.1519 267.387 58.9679 267.387 55.3839C267.387 51.8319 268.155 48.6639 269.691 45.8799C271.259 43.0959 273.403 40.9359 276.123 39.3999C278.875 37.8639 281.947 37.0959 285.339 37.0959C289.179 37.0959 292.443 37.9279 295.131 39.5919C297.851 41.2559 299.803 43.6239 300.987 46.6959C301.051 46.8879 301.083 46.9999 301.083 47.0319C301.083 47.1919 301.019 47.3359 300.891 47.4639C300.795 47.5599 300.667 47.6239 300.507 47.6559L293.163 49.6719L292.923 49.7199C292.667 49.7199 292.427 49.5599 292.203 49.2399C291.499 48.1199 290.555 47.2559 289.371 46.6479C288.219 46.0399 286.923 45.7359 285.483 45.7359C282.763 45.7359 280.603 46.5999 279.003 48.3279C277.435 50.0239 276.651 52.3919 276.651 55.4319C276.651 58.4399 277.451 60.8079 279.051 62.5359C280.651 64.2319 282.795 65.0799 285.483 65.0799C287.563 65.0799 289.291 64.6159 290.667 63.6879C292.043 62.7599 292.843 61.4639 293.067 59.7999H286.299C285.787 59.7999 285.531 59.5439 285.531 59.0319V53.8959C285.531 53.3839 285.787 53.1279 286.299 53.1279H301.323C301.547 53.1279 301.723 53.2079 301.851 53.3679C302.011 53.4959 302.091 53.6719 302.091 53.8959V58.0239C302.091 60.9999 301.435 63.6719 300.123 66.0399C298.811 68.4079 296.875 70.2799 294.315 71.6559C291.787 72.9999 288.747 73.6719 285.195 73.6719Z" fill="url(#paint4_linear_552_3533)"/>
<defs>
<linearGradient id="paint0_linear_552_3533" x1="28.6977" y1="0" x2="28.6977" y2="1" gradientUnits="userSpaceOnUse">
<stop stop-color="#FFC163"/>
<stop offset="0.22" stop-color="#FD7427"/>
<stop offset="0.57" stop-color="#E54A5F"/>
<stop offset="1" stop-color="#2915C1"/>
</linearGradient>
<linearGradient id="paint1_linear_552_3533" x1="28.6977" y1="0" x2="28.6977" y2="1" gradientUnits="userSpaceOnUse">
<stop stop-color="#FFC163"/>
<stop offset="0.22" stop-color="#FD7427"/>
<stop offset="0.57" stop-color="#E54A5F"/>
<stop offset="1" stop-color="#2915C1"/>
</linearGradient>
<linearGradient id="paint2_linear_552_3533" x1="163.403" y1="21.4541" x2="163.403" y2="68.4541" gradientUnits="userSpaceOnUse">
<stop stop-color="#FFC163"/>
<stop offset="0.425" stop-color="#FD7427"/>
<stop offset="1" stop-color="#E54A5F"/>
</linearGradient>
<linearGradient id="paint3_linear_552_3533" x1="156.269" y1="31.9999" x2="156.269" y2="78.9999" gradientUnits="userSpaceOnUse">
<stop stop-color="#FFC163"/>
<stop offset="0.425" stop-color="#FD7427"/>
<stop offset="1" stop-color="#E54A5F"/>
</linearGradient>
<linearGradient id="paint4_linear_552_3533" x1="9.26904" y1="55.9999" x2="305.269" y2="55.9999" gradientUnits="userSpaceOnUse">
<stop stop-color="#FFC163"/>
<stop offset="0.425" stop-color="#FD7427"/>
<stop offset="1" stop-color="#E54A5F"/>
</linearGradient>
</defs>
</svg>
