<svg width="19" height="18" viewBox="0 0 19 18" fill="none" xmlns="http://www.w3.org/2000/svg">
<path fill-rule="evenodd" clip-rule="evenodd" d="M3.07143 0C2.38944 0 1.73539 0.270917 1.25315 0.753154C0.770917 1.23539 0.5 1.88944 0.5 2.57143V15.4286C0.5 16.1106 0.770917 16.7646 1.25315 17.2468C1.73539 17.7291 2.38944 18 3.07143 18H15.9286C16.6106 18 17.2646 17.7291 17.7468 17.2468C18.2291 16.7646 18.5 16.1106 18.5 15.4286V2.57143C18.5 1.88944 18.2291 1.23539 17.7468 0.753154C17.2646 0.270917 16.6106 0 15.9286 0H3.07143ZM3.07143 2.57143H15.9286V11.5714H13.3571L12.0714 14.1429H6.92857L5.64286 11.5714H3.07143V2.57143Z" fill="#FD7427"/>
</svg>
