<svg width="60" height="60" viewBox="0 0 60 60" fill="none" xmlns="http://www.w3.org/2000/svg">
<path d="M3 30C3 33.5457 3.69838 37.0567 5.05525 40.3325C6.41213 43.6082 8.40093 46.5847 10.9081 49.0919C13.4153 51.5991 16.3918 53.5879 19.6675 54.9447C22.9433 56.3016 26.4543 57 30 57C33.5457 57 37.0567 56.3016 40.3325 54.9447C43.6082 53.5879 46.5847 51.5991 49.0919 49.0919C51.5991 46.5847 53.5879 43.6082 54.9447 40.3325C56.3016 37.0567 57 33.5457 57 30C57 26.4543 56.3016 22.9433 54.9447 19.6675C53.5879 16.3918 51.5991 13.4153 49.0919 10.9081C46.5847 8.40094 43.6082 6.41213 40.3325 5.05525C37.0567 3.69838 33.5457 3 30 3C26.4543 3 22.9433 3.69838 19.6675 5.05525C16.3918 6.41213 13.4153 8.40094 10.9081 10.9081C8.40093 13.4153 6.41213 16.3918 5.05525 19.6675C3.69838 22.9433 3 26.4543 3 30ZM30 45V45.03V45Z" fill="white"/>
<path d="M30 45V45.03M3 30C3 33.5457 3.69838 37.0567 5.05525 40.3325C6.41213 43.6082 8.40093 46.5847 10.9081 49.0919C13.4153 51.5991 16.3918 53.5879 19.6675 54.9447C22.9433 56.3016 26.4543 57 30 57C33.5457 57 37.0567 56.3016 40.3325 54.9447C43.6082 53.5879 46.5847 51.5991 49.0919 49.0919C51.5991 46.5847 53.5879 43.6082 54.9447 40.3325C56.3016 37.0567 57 33.5457 57 30C57 26.4543 56.3016 22.9433 54.9447 19.6675C53.5879 16.3918 51.5991 13.4153 49.0919 10.9081C46.5847 8.40094 43.6082 6.41213 40.3325 5.05525C37.0567 3.69838 33.5457 3 30 3C26.4543 3 22.9433 3.69838 19.6675 5.05525C16.3918 6.41213 13.4153 8.40094 10.9081 10.9081C8.40093 13.4153 6.41213 16.3918 5.05525 19.6675C3.69838 22.9433 3 26.4543 3 30Z" stroke="#FD7427" stroke-width="5" stroke-linecap="round" stroke-linejoin="round"/>
<path d="M30 45V45.03M3 30C3 33.5457 3.69838 37.0567 5.05525 40.3325C6.41213 43.6082 8.40093 46.5847 10.9081 49.0919C13.4153 51.5991 16.3918 53.5879 19.6675 54.9447C22.9433 56.3016 26.4543 57 30 57C33.5457 57 37.0567 56.3016 40.3325 54.9447C43.6082 53.5879 46.5847 51.5991 49.0919 49.0919C51.5991 46.5847 53.5879 43.6082 54.9447 40.3325C56.3016 37.0567 57 33.5457 57 30C57 26.4543 56.3016 22.9433 54.9447 19.6675C53.5879 16.3918 51.5991 13.4153 49.0919 10.9081C46.5847 8.40094 43.6082 6.41213 40.3325 5.05525C37.0567 3.69838 33.5457 3 30 3C26.4543 3 22.9433 3.69838 19.6675 5.05525C16.3918 6.41213 13.4153 8.40094 10.9081 10.9081C8.40093 13.4153 6.41213 16.3918 5.05525 19.6675C3.69838 22.9433 3 26.4543 3 30Z" stroke="url(#paint0_linear_541_3026)" stroke-width="5" stroke-linecap="round" stroke-linejoin="round"/>
<path d="M30 34.4995C29.9448 33.5256 30.2075 32.5602 30.7486 31.7486C31.2896 30.9369 32.0798 30.3231 33 29.9995C34.1276 29.5683 35.1397 28.8812 35.9567 27.9924C36.7737 27.1035 37.3732 26.0372 37.708 24.8773C38.0428 23.7174 38.1038 22.4956 37.8862 21.3081C37.6686 20.1206 37.1783 18.9999 36.4539 18.0341C35.7296 17.0683 34.7909 16.2838 33.7119 15.7424C32.6328 15.201 31.4428 14.9174 30.2356 14.9141C29.0283 14.9107 27.8368 15.1877 26.7547 15.7231C25.6727 16.2585 24.7297 17.0377 24 17.9995" fill="white"/>
<path d="M30 34.4995C29.9448 33.5256 30.2075 32.5602 30.7486 31.7486C31.2896 30.9369 32.0798 30.3231 33 29.9995C34.1276 29.5683 35.1397 28.8812 35.9567 27.9924C36.7737 27.1035 37.3732 26.0372 37.708 24.8773C38.0428 23.7174 38.1038 22.4956 37.8862 21.3081C37.6686 20.1206 37.1783 18.9999 36.4539 18.0341C35.7296 17.0683 34.7909 16.2838 33.7119 15.7424C32.6328 15.201 31.4428 14.9174 30.2356 14.9141C29.0283 14.9107 27.8368 15.1877 26.7547 15.7231C25.6727 16.2585 24.7297 17.0377 24 17.9995" stroke="#FD7427" stroke-width="5" stroke-linecap="round" stroke-linejoin="round"/>
<path d="M30 34.4995C29.9448 33.5256 30.2075 32.5602 30.7486 31.7486C31.2896 30.9369 32.0798 30.3231 33 29.9995C34.1276 29.5683 35.1397 28.8812 35.9567 27.9924C36.7737 27.1035 37.3732 26.0372 37.708 24.8773C38.0428 23.7174 38.1038 22.4956 37.8862 21.3081C37.6686 20.1206 37.1783 18.9999 36.4539 18.0341C35.7296 17.0683 34.7909 16.2838 33.7119 15.7424C32.6328 15.201 31.4428 14.9174 30.2356 14.9141C29.0283 14.9107 27.8368 15.1877 26.7547 15.7231C25.6727 16.2585 24.7297 17.0377 24 17.9995" stroke="url(#paint1_linear_541_3026)" stroke-width="5" stroke-linecap="round" stroke-linejoin="round"/>
<defs>
<linearGradient id="paint0_linear_541_3026" x1="30" y1="3" x2="30" y2="57" gradientUnits="userSpaceOnUse">
<stop stop-color="#FFC163"/>
<stop offset="0.22" stop-color="#FD7427"/>
<stop offset="0.57" stop-color="#E54A5F"/>
<stop offset="1" stop-color="#2915C1"/>
</linearGradient>
<linearGradient id="paint1_linear_541_3026" x1="31.007" y1="14.9141" x2="31.007" y2="34.4995" gradientUnits="userSpaceOnUse">
<stop stop-color="#FFC163"/>
<stop offset="0.22" stop-color="#FD7427"/>
<stop offset="0.57" stop-color="#E54A5F"/>
<stop offset="1" stop-color="#2915C1"/>
</linearGradient>
</defs>
</svg>
