<svg width="18" height="16" viewBox="0 0 18 16" fill="none" xmlns="http://www.w3.org/2000/svg">
<g clip-path="url(#clip0_655_1292)">
<path fill-rule="evenodd" clip-rule="evenodd" d="M7.08253 1.40887C7.92403 -0.0871348 10.0767 -0.0871348 10.9171 1.40887L17.0551 12.3209C17.8801 13.7883 16.8208 15.5989 15.1389 15.5989H2.86183C1.17883 15.5989 0.119533 13.7883 0.944533 12.3209L7.08253 1.40887ZM10.0998 12.3C10.0998 12.5917 9.98394 12.8715 9.77765 13.0778C9.57136 13.2841 9.29157 13.4 8.99983 13.4C8.7081 13.4 8.42831 13.2841 8.22202 13.0778C8.01573 12.8715 7.89983 12.5917 7.89983 12.3C7.89983 12.0082 8.01573 11.7284 8.22202 11.5221C8.42831 11.3159 8.7081 11.2 8.99983 11.2C9.29157 11.2 9.57136 11.3159 9.77765 11.5221C9.98394 11.7284 10.0998 12.0082 10.0998 12.3ZM8.99983 3.49997C8.7081 3.49997 8.42831 3.61586 8.22202 3.82215C8.01573 4.02844 7.89983 4.30823 7.89983 4.59997V7.89997C7.89983 8.1917 8.01573 8.47149 8.22202 8.67778C8.42831 8.88407 8.7081 8.99997 8.99983 8.99997C9.29157 8.99997 9.57136 8.88407 9.77765 8.67778C9.98394 8.47149 10.0998 8.1917 10.0998 7.89997V4.59997C10.0998 4.30823 9.98394 4.02844 9.77765 3.82215C9.57136 3.61586 9.29157 3.49997 8.99983 3.49997Z" fill="#FD7427"/>
<path fill-rule="evenodd" clip-rule="evenodd" d="M7.08253 1.40887C7.92403 -0.0871348 10.0767 -0.0871348 10.9171 1.40887L17.0551 12.3209C17.8801 13.7883 16.8208 15.5989 15.1389 15.5989H2.86183C1.17883 15.5989 0.119533 13.7883 0.944533 12.3209L7.08253 1.40887ZM10.0998 12.3C10.0998 12.5917 9.98394 12.8715 9.77765 13.0778C9.57136 13.2841 9.29157 13.4 8.99983 13.4C8.7081 13.4 8.42831 13.2841 8.22202 13.0778C8.01573 12.8715 7.89983 12.5917 7.89983 12.3C7.89983 12.0082 8.01573 11.7284 8.22202 11.5221C8.42831 11.3159 8.7081 11.2 8.99983 11.2C9.29157 11.2 9.57136 11.3159 9.77765 11.5221C9.98394 11.7284 10.0998 12.0082 10.0998 12.3ZM8.99983 3.49997C8.7081 3.49997 8.42831 3.61586 8.22202 3.82215C8.01573 4.02844 7.89983 4.30823 7.89983 4.59997V7.89997C7.89983 8.1917 8.01573 8.47149 8.22202 8.67778C8.42831 8.88407 8.7081 8.99997 8.99983 8.99997C9.29157 8.99997 9.57136 8.88407 9.77765 8.67778C9.98394 8.47149 10.0998 8.1917 10.0998 7.89997V4.59997C10.0998 4.30823 9.98394 4.02844 9.77765 3.82215C9.57136 3.61586 9.29157 3.49997 8.99983 3.49997Z" fill="url(#paint0_linear_655_1292)"/>
</g>
<defs>
<linearGradient id="paint0_linear_655_1292" x1="0.658691" y1="7.94287" x2="17.341" y2="7.94287" gradientUnits="userSpaceOnUse">
<stop stop-color="#7076B6"/>
<stop offset="0.51" stop-color="#7154C4"/>
<stop offset="1" stop-color="#3815C1"/>
</linearGradient>
<clipPath id="clip0_655_1292">
<rect width="18" height="16" fill="white"/>
</clipPath>
</defs>
</svg>
