<svg width="25" height="24" viewBox="0 0 25 24" fill="none" xmlns="http://www.w3.org/2000/svg">
<path d="M5.5 5C5.5 4.46957 5.71071 3.96086 6.08579 3.58579C6.46086 3.21071 6.96957 3 7.5 3H17.5C18.0304 3 18.5391 3.21071 18.9142 3.58579C19.2893 3.96086 19.5 4.46957 19.5 5V21L12.5 17.5L5.5 21V5Z" stroke="#FD7427" stroke-width="2" stroke-linecap="round" stroke-linejoin="round"/>
<path d="M5.5 5C5.5 4.46957 5.71071 3.96086 6.08579 3.58579C6.46086 3.21071 6.96957 3 7.5 3H17.5C18.0304 3 18.5391 3.21071 18.9142 3.58579C19.2893 3.96086 19.5 4.46957 19.5 5V21L12.5 17.5L5.5 21V5Z" stroke="url(#paint0_linear_283_508)" stroke-width="2" stroke-linecap="round" stroke-linejoin="round"/>
<g clip-path="url(#clip0_283_508)">
<path fill-rule="evenodd" clip-rule="evenodd" d="M12.5 6C12.6705 6 12.834 6.06773 12.9546 6.18829C13.0751 6.30885 13.1429 6.47236 13.1429 6.64286V9.85714H16.3571C16.5276 9.85714 16.6912 9.92487 16.8117 10.0454C16.9323 10.166 17 10.3295 17 10.5C17 10.6705 16.9323 10.834 16.8117 10.9546C16.6912 11.0751 16.5276 11.1429 16.3571 11.1429H13.1429V14.3571C13.1429 14.5276 13.0751 14.6912 12.9546 14.8117C12.834 14.9323 12.6705 15 12.5 15C12.3295 15 12.166 14.9323 12.0454 14.8117C11.9249 14.6912 11.8571 14.5276 11.8571 14.3571V11.1429H8.64286C8.47236 11.1429 8.30885 11.0751 8.18829 10.9546C8.06773 10.834 8 10.6705 8 10.5C8 10.3295 8.06773 10.166 8.18829 10.0454C8.30885 9.92487 8.47236 9.85714 8.64286 9.85714H11.8571V6.64286C11.8571 6.47236 11.9249 6.30885 12.0454 6.18829C12.166 6.06773 12.3295 6 12.5 6Z" fill="#FD7427"/>
<path fill-rule="evenodd" clip-rule="evenodd" d="M12.5 6C12.6705 6 12.834 6.06773 12.9546 6.18829C13.0751 6.30885 13.1429 6.47236 13.1429 6.64286V9.85714H16.3571C16.5276 9.85714 16.6912 9.92487 16.8117 10.0454C16.9323 10.166 17 10.3295 17 10.5C17 10.6705 16.9323 10.834 16.8117 10.9546C16.6912 11.0751 16.5276 11.1429 16.3571 11.1429H13.1429V14.3571C13.1429 14.5276 13.0751 14.6912 12.9546 14.8117C12.834 14.9323 12.6705 15 12.5 15C12.3295 15 12.166 14.9323 12.0454 14.8117C11.9249 14.6912 11.8571 14.5276 11.8571 14.3571V11.1429H8.64286C8.47236 11.1429 8.30885 11.0751 8.18829 10.9546C8.06773 10.834 8 10.6705 8 10.5C8 10.3295 8.06773 10.166 8.18829 10.0454C8.30885 9.92487 8.47236 9.85714 8.64286 9.85714H11.8571V6.64286C11.8571 6.47236 11.9249 6.30885 12.0454 6.18829C12.166 6.06773 12.3295 6 12.5 6Z" fill="url(#paint1_linear_283_508)"/>
</g>
<defs>
<linearGradient id="paint0_linear_283_508" x1="12.5" y1="3" x2="12.5" y2="21" gradientUnits="userSpaceOnUse">
<stop stop-color="#FFC163"/>
<stop offset="0.425" stop-color="#FD7427"/>
<stop offset="1" stop-color="#E54A5F"/>
</linearGradient>
<linearGradient id="paint1_linear_283_508" x1="12.5" y1="6" x2="12.5" y2="15" gradientUnits="userSpaceOnUse">
<stop stop-color="#FFC163"/>
<stop offset="0.425" stop-color="#FD7427"/>
<stop offset="1" stop-color="#E54A5F"/>
</linearGradient>
<clipPath id="clip0_283_508">
<rect width="9" height="9" fill="white" transform="translate(8 6)"/>
</clipPath>
</defs>
</svg>
