<svg width="131" height="81" viewBox="0 0 131 81" fill="none" xmlns="http://www.w3.org/2000/svg">
<line y1="-1.22909" x2="35.3019" y2="-1.22909" transform="matrix(0.829465 -0.558558 0.829465 0.558558 35.6538 23.4175)" stroke="#FD7427" stroke-width="2.45819"/>
<line y1="-1.22909" x2="35.3019" y2="-1.22909" transform="matrix(0.829465 -0.558558 0.829465 0.558558 35.6538 23.4175)" stroke="url(#paint0_linear_578_2139)" stroke-width="2.45819"/>
<line y1="-1.22909" x2="35.3019" y2="-1.22909" transform="matrix(-0.829465 -0.558558 -0.829465 0.558558 94.2188 23.4175)" stroke="#FD7427" stroke-width="2.45819"/>
<line y1="-1.22909" x2="35.3019" y2="-1.22909" transform="matrix(-0.829465 -0.558558 -0.829465 0.558558 94.2188 23.4175)" stroke="url(#paint1_linear_578_2139)" stroke-width="2.45819"/>
<ellipse cx="65.1539" cy="5.54574" rx="5.53099" ry="5.54574" fill="#D34B61"/>
<rect width="124.993" height="57.6893" rx="7.37451" transform="matrix(0.997843 0.0656445 -0.0741233 0.997249 4.27637 14.4224)" fill="#FD7427"/>
<rect width="124.993" height="57.6893" rx="7.37451" transform="matrix(0.997843 0.0656445 -0.0741233 0.997249 4.27637 14.4224)" fill="url(#paint2_linear_578_2139)"/>
<rect x="2.15177" y="18.0007" width="127.452" height="55.34" rx="8.6036" fill="white"/>
<rect x="2.15177" y="18.0007" width="127.452" height="55.34" rx="8.6036" stroke="#FD7427" stroke-width="2.45817"/>
<rect x="2.15177" y="18.0007" width="127.452" height="55.34" rx="8.6036" stroke="url(#paint3_linear_578_2139)" stroke-width="2.45817"/>
<path d="M27.6018 69.0374C23.5636 69.0374 20.1215 68.0759 17.2755 66.1529C14.4679 64.1915 12.468 61.4032 11.2758 57.788C11.2373 57.7111 11.2181 57.5957 11.2181 57.4418C11.2181 57.0188 11.4488 56.7496 11.9104 56.6342L19.9292 54.6728L20.2176 54.6151C20.6022 54.6151 20.8907 54.8266 21.083 55.2496C21.6983 56.7496 22.5444 57.8457 23.6213 58.5379C24.7366 59.2302 26.1596 59.5763 27.8903 59.5763C29.3133 59.5763 30.4479 59.3456 31.294 58.8841C32.1401 58.3841 32.5631 57.6534 32.5631 56.6919C32.5631 55.6919 32.1401 54.8843 31.294 54.2689C30.4863 53.6151 29.121 52.9421 27.198 52.2498L22.8136 50.6922C19.4677 49.5384 16.8716 47.8846 15.0256 45.7309C13.1795 43.5772 12.2565 40.9812 12.2565 37.9429C12.2565 35.4814 12.9295 33.27 14.2756 31.3086C15.6217 29.3472 17.4485 27.828 19.7561 26.7511C22.0637 25.6358 24.6212 25.0781 27.4288 25.0781C31.0824 25.0781 34.2169 25.9435 36.8321 27.6742C39.4858 29.4048 41.3896 32.0201 42.5434 35.5199C42.5818 35.5968 42.6011 35.7314 42.6011 35.9237C42.6011 36.3083 42.3895 36.5583 41.9665 36.6737L33.5438 38.9236C33.4669 38.962 33.3515 38.9813 33.1977 38.9813C32.8516 38.9813 32.5824 38.7697 32.3901 38.3467C31.7747 36.9237 31.044 35.943 30.1979 35.4045C29.3902 34.8276 28.4095 34.5392 27.2557 34.5392C26.0635 34.5392 25.0827 34.7892 24.3136 35.2891C23.5828 35.7891 23.2175 36.4814 23.2175 37.366C23.2175 38.2505 23.6597 39.039 24.5443 39.7312C25.4289 40.385 26.948 41.0773 29.1018 41.808L32.2747 42.8464C36.1206 44.1541 38.9474 45.8463 40.755 47.9231C42.5626 49.9999 43.4664 52.7498 43.4664 56.1727C43.4664 58.6341 42.7934 60.8455 41.4473 62.8069C40.1012 64.7684 38.2167 66.3068 35.7937 67.4221C33.4092 68.499 30.6786 69.0374 27.6018 69.0374Z" fill="#7076B6"/>
<path d="M47.6457 68.2297C47.0304 68.2297 46.7227 67.9221 46.7227 67.3067V26.8088C46.7227 26.1935 47.0304 25.8858 47.6457 25.8858H63.2795C70.1638 25.8858 75.452 27.7126 79.1441 31.3663C82.8746 34.9815 84.7399 40.212 84.7399 47.0578C84.7399 53.8651 82.8746 59.0956 79.1441 62.7493C75.4135 66.4029 70.1253 68.2297 63.2795 68.2297H47.6457ZM57.3375 35.8084V58.3072H62.2411C66.0101 58.3072 68.8754 57.3649 70.8368 55.4804C72.7983 53.5959 73.779 50.7883 73.779 47.0578C73.779 43.3272 72.7983 40.5196 70.8368 38.6351C68.8754 36.7506 66.0101 35.8084 62.2411 35.8084H57.3375Z" fill="#F9A224"/>
<path d="M90.4079 68.2297C89.7926 68.2297 89.4849 67.9221 89.4849 67.3067V26.8088C89.4849 26.1935 89.7926 25.8858 90.4079 25.8858H106.042C111.195 25.8858 114.984 26.8665 117.406 28.8279C119.829 30.7894 121.041 33.5008 121.041 36.9621C121.041 39.0005 120.522 40.8081 119.483 42.3849C118.483 43.9233 117.022 45.0963 115.099 45.904C117.753 46.6347 119.753 47.8846 121.099 49.6538C122.483 51.3845 123.175 53.442 123.175 55.8265C123.175 59.8648 121.772 62.9416 118.964 65.0568C116.195 67.1721 111.83 68.2297 105.869 68.2297H90.4079ZM99.9266 34.5392V42.7311H105.753C107.215 42.7311 108.369 42.3849 109.215 41.6927C110.099 41.0004 110.541 39.9812 110.541 38.6351C110.541 37.289 110.099 36.2699 109.215 35.5776C108.369 34.8853 107.215 34.5392 105.753 34.5392H99.9266ZM99.9266 50.6345V59.5763H106.503C108.272 59.5763 109.657 59.1917 110.657 58.4226C111.657 57.6534 112.157 56.538 112.157 55.0766C112.157 53.6151 111.657 52.519 110.657 51.7883C109.657 51.0191 108.272 50.6345 106.503 50.6345H99.9266Z" fill="#FD7427"/>
<path d="M90.4079 68.2297C89.7926 68.2297 89.4849 67.9221 89.4849 67.3067V26.8088C89.4849 26.1935 89.7926 25.8858 90.4079 25.8858H106.042C111.195 25.8858 114.984 26.8665 117.406 28.8279C119.829 30.7894 121.041 33.5008 121.041 36.9621C121.041 39.0005 120.522 40.8081 119.483 42.3849C118.483 43.9233 117.022 45.0963 115.099 45.904C117.753 46.6347 119.753 47.8846 121.099 49.6538C122.483 51.3845 123.175 53.442 123.175 55.8265C123.175 59.8648 121.772 62.9416 118.964 65.0568C116.195 67.1721 111.83 68.2297 105.869 68.2297H90.4079ZM99.9266 34.5392V42.7311H105.753C107.215 42.7311 108.369 42.3849 109.215 41.6927C110.099 41.0004 110.541 39.9812 110.541 38.6351C110.541 37.289 110.099 36.2699 109.215 35.5776C108.369 34.8853 107.215 34.5392 105.753 34.5392H99.9266ZM99.9266 50.6345V59.5763H106.503C108.272 59.5763 109.657 59.1917 110.657 58.4226C111.657 57.6534 112.157 56.538 112.157 55.0766C112.157 53.6151 111.657 52.519 110.657 51.7883C109.657 51.0191 108.272 50.6345 106.503 50.6345H99.9266Z" fill="url(#paint4_linear_578_2139)"/>
<defs>
<linearGradient id="paint0_linear_578_2139" x1="17.6509" y1="0" x2="17.6509" y2="1" gradientUnits="userSpaceOnUse">
<stop stop-color="#FFC163"/>
<stop offset="0.22" stop-color="#FD7427"/>
<stop offset="0.57" stop-color="#E54A5F"/>
<stop offset="1" stop-color="#2915C1"/>
</linearGradient>
<linearGradient id="paint1_linear_578_2139" x1="17.6509" y1="0" x2="17.6509" y2="1" gradientUnits="userSpaceOnUse">
<stop stop-color="#FFC163"/>
<stop offset="0.22" stop-color="#FD7427"/>
<stop offset="0.57" stop-color="#E54A5F"/>
<stop offset="1" stop-color="#2915C1"/>
</linearGradient>
<linearGradient id="paint2_linear_578_2139" x1="62.4967" y1="0" x2="62.4967" y2="57.6893" gradientUnits="userSpaceOnUse">
<stop stop-color="#FFC163"/>
<stop offset="0.425" stop-color="#FD7427"/>
<stop offset="1" stop-color="#E54A5F"/>
</linearGradient>
<linearGradient id="paint3_linear_578_2139" x1="65.8776" y1="19.2297" x2="65.8776" y2="72.1116" gradientUnits="userSpaceOnUse">
<stop stop-color="#FFC163"/>
<stop offset="0.425" stop-color="#FD7427"/>
<stop offset="1" stop-color="#E54A5F"/>
</linearGradient>
<linearGradient id="paint4_linear_578_2139" x1="7.74463" y1="48.0744" x2="127.931" y2="48.0744" gradientUnits="userSpaceOnUse">
<stop stop-color="#FFC163"/>
<stop offset="0.425" stop-color="#FD7427"/>
<stop offset="1" stop-color="#E54A5F"/>
</linearGradient>
</defs>
</svg>
