<svg width="19" height="17" viewBox="0 0 19 17" fill="none" xmlns="http://www.w3.org/2000/svg">
<path d="M13.1663 16.2498L12.8913 14.8748C12.708 14.7984 12.5363 14.7184 12.3762 14.6347C12.2161 14.5509 12.0517 14.4477 11.883 14.3248L10.5538 14.7373L9.63717 13.179L10.6913 12.2623C10.6608 12.0484 10.6455 11.8498 10.6455 11.6665C10.6455 11.4832 10.6608 11.2846 10.6913 11.0707L9.63717 10.154L10.5538 8.59567L11.883 9.00817C12.0511 8.88595 12.2155 8.78298 12.3762 8.69925C12.5369 8.61553 12.7086 8.53517 12.8913 8.45817L13.1663 7.08317H14.9997L15.2747 8.45817C15.458 8.53456 15.63 8.61859 15.7908 8.71025C15.9515 8.80192 16.1156 8.9165 16.283 9.054L17.6122 8.59567L18.5288 10.1998L17.4747 11.1165C17.5052 11.2998 17.5205 11.4908 17.5205 11.6894C17.5205 11.888 17.5052 12.079 17.4747 12.2623L18.5288 13.179L17.6122 14.7373L16.283 14.3248C16.115 14.4471 15.9509 14.5503 15.7908 14.6347C15.6306 14.719 15.4586 14.7991 15.2747 14.8748L14.9997 16.2498H13.1663ZM0.333008 15.3332V12.7665C0.333008 12.2623 0.462869 11.7887 0.722591 11.3457C0.982313 10.9026 1.34134 10.5665 1.79967 10.3373C2.57884 9.94011 3.45731 9.604 4.43509 9.329C5.41287 9.054 6.48995 8.9165 7.66634 8.9165H7.98717C8.07884 8.9165 8.17051 8.93178 8.26217 8.96234C7.81912 10.0623 7.63579 11.1547 7.71217 12.2394C7.78856 13.3241 8.15523 14.3554 8.81217 15.3332H0.333008ZM14.083 13.4998C14.5872 13.4998 15.0189 13.3205 15.3783 12.9618C15.7376 12.603 15.917 12.1713 15.9163 11.6665C15.9157 11.1617 15.7364 10.7303 15.3783 10.3722C15.0201 10.0141 14.5884 9.83439 14.083 9.83317C13.5776 9.83195 13.1462 10.0116 12.7887 10.3722C12.4312 10.7327 12.2515 11.1642 12.2497 11.6665C12.2478 12.1688 12.4275 12.6006 12.7887 12.9618C13.1498 13.3229 13.5813 13.5023 14.083 13.4998ZM7.66634 7.99984C6.65801 7.99984 5.79481 7.64081 5.07676 6.92275C4.3587 6.2047 3.99967 5.3415 3.99967 4.33317C3.99967 3.32484 4.3587 2.46164 5.07676 1.74359C5.79481 1.02553 6.65801 0.666504 7.66634 0.666504C8.67467 0.666504 9.53787 1.02553 10.2559 1.74359C10.974 2.46164 11.333 3.32484 11.333 4.33317C11.333 5.3415 10.974 6.2047 10.2559 6.92275C9.53787 7.64081 8.67467 7.99984 7.66634 7.99984Z" fill="#FD7427"/>
<path d="M13.1663 16.2498L12.8913 14.8748C12.708 14.7984 12.5363 14.7184 12.3762 14.6347C12.2161 14.5509 12.0517 14.4477 11.883 14.3248L10.5538 14.7373L9.63717 13.179L10.6913 12.2623C10.6608 12.0484 10.6455 11.8498 10.6455 11.6665C10.6455 11.4832 10.6608 11.2846 10.6913 11.0707L9.63717 10.154L10.5538 8.59567L11.883 9.00817C12.0511 8.88595 12.2155 8.78298 12.3762 8.69925C12.5369 8.61553 12.7086 8.53517 12.8913 8.45817L13.1663 7.08317H14.9997L15.2747 8.45817C15.458 8.53456 15.63 8.61859 15.7908 8.71025C15.9515 8.80192 16.1156 8.9165 16.283 9.054L17.6122 8.59567L18.5288 10.1998L17.4747 11.1165C17.5052 11.2998 17.5205 11.4908 17.5205 11.6894C17.5205 11.888 17.5052 12.079 17.4747 12.2623L18.5288 13.179L17.6122 14.7373L16.283 14.3248C16.115 14.4471 15.9509 14.5503 15.7908 14.6347C15.6306 14.719 15.4586 14.7991 15.2747 14.8748L14.9997 16.2498H13.1663ZM0.333008 15.3332V12.7665C0.333008 12.2623 0.462869 11.7887 0.722591 11.3457C0.982313 10.9026 1.34134 10.5665 1.79967 10.3373C2.57884 9.94011 3.45731 9.604 4.43509 9.329C5.41287 9.054 6.48995 8.9165 7.66634 8.9165H7.98717C8.07884 8.9165 8.17051 8.93178 8.26217 8.96234C7.81912 10.0623 7.63579 11.1547 7.71217 12.2394C7.78856 13.3241 8.15523 14.3554 8.81217 15.3332H0.333008ZM14.083 13.4998C14.5872 13.4998 15.0189 13.3205 15.3783 12.9618C15.7376 12.603 15.917 12.1713 15.9163 11.6665C15.9157 11.1617 15.7364 10.7303 15.3783 10.3722C15.0201 10.0141 14.5884 9.83439 14.083 9.83317C13.5776 9.83195 13.1462 10.0116 12.7887 10.3722C12.4312 10.7327 12.2515 11.1642 12.2497 11.6665C12.2478 12.1688 12.4275 12.6006 12.7887 12.9618C13.1498 13.3229 13.5813 13.5023 14.083 13.4998ZM7.66634 7.99984C6.65801 7.99984 5.79481 7.64081 5.07676 6.92275C4.3587 6.2047 3.99967 5.3415 3.99967 4.33317C3.99967 3.32484 4.3587 2.46164 5.07676 1.74359C5.79481 1.02553 6.65801 0.666504 7.66634 0.666504C8.67467 0.666504 9.53787 1.02553 10.2559 1.74359C10.974 2.46164 11.333 3.32484 11.333 4.33317C11.333 5.3415 10.974 6.2047 10.2559 6.92275C9.53787 7.64081 8.67467 7.99984 7.66634 7.99984Z" fill="url(#paint0_linear_336_1020)"/>
<defs>
<linearGradient id="paint0_linear_336_1020" x1="9.43092" y1="0.666504" x2="9.43092" y2="16.2498" gradientUnits="userSpaceOnUse">
<stop stop-color="#FFC163"/>
<stop offset="0.425" stop-color="#FD7427"/>
<stop offset="1" stop-color="#E54A5F"/>
</linearGradient>
</defs>
</svg>
